<svg xmlns="http://www.w3.org/2000/svg" viewBox="-29 -32 219 94" width="219" height="94" role="img" fill="none" stroke-linecap="round" stroke-linejoin="round" class="grooph-glyph">
<title>Fresh grind, rare judge</title>
<rect x="-25" y="-28" width="173" height="86" rx="10" stroke-width="1.3" stroke-dasharray="4 3" style="stroke:var(--loop-1, #0f7c8c)"/>
<rect x="-19" y="-20" width="101" height="54" rx="10" stroke-width="1.3" stroke-dasharray="4 3" style="stroke:var(--loop-0, #7a4cc2)"/>
<path d="M12,0 L44,0" stroke-width="1.6" style="stroke:var(--edge, #5c6663)"/>
<path d="M44,0 L37,3.5 L37,-3.5 Z" style="fill:var(--edge, #5c6663)"/>
<path d="M60,13 C60,26 -6,26 -6,14" stroke-width="1.6" stroke-dasharray="5 3" style="stroke:var(--warning, #955500)"/>
<path d="M-6,14 L-2.5,21 L-9.5,21 Z" style="fill:var(--warning, #955500)"/>
<path d="M74,0 L103,0" stroke-width="1.6" style="stroke:var(--edge, #5c6663)"/>
<path d="M103,0 L96,3.5 L96,-3.5 Z" style="fill:var(--edge, #5c6663)"/>
<path d="M117,15 C117,36 0,36 0,14" stroke-width="1.6" stroke-dasharray="5 3" style="stroke:var(--warning, #955500)"/>
<path d="M0,14 L3.5,21 L-3.5,21 Z" style="fill:var(--warning, #955500)"/>
<path d="M123,15 C123,44 6,44 6,14" stroke-width="1.6" stroke-dasharray="1.5 3.5" style="stroke:var(--ink-3, #6b7370)"/>
<path d="M6,14 L9.5,21 L2.5,21 Z" style="fill:var(--ink-3, #6b7370)"/>
<path d="M135,0 L171,0" stroke-width="1.6" style="stroke:var(--edge, #5c6663)"/>
<path d="M171,0 L164,3.5 L164,-3.5 Z" style="fill:var(--edge, #5c6663)"/>
<rect x="-11" y="-11" width="22" height="22" rx="2" stroke-width="1.8" style="fill:var(--accent-soft, #e3efe9);stroke:var(--kind-agent, #1f5f4a)"/>
<path d="M53,-12 L67,-12 L74,0 L67,12 L53,12 L46,0 Z" stroke-width="1.8" style="fill:var(--surface, #ffffff);stroke:var(--kind-check, #2b5f9e)"/>
<path d="M120,-14 L134,0 L120,14 L106,0 Z" stroke-width="1.8" style="fill:var(--accent-soft, #e3efe9);stroke:var(--kind-agent, #1f5f4a)"/>
<circle cx="180" cy="0" r="6" style="fill:var(--ink, #2b302e)"/>
</svg>
