<svg xmlns="http://www.w3.org/2000/svg" viewBox="-15 -15 265 118" width="265" height="118" role="img" fill="none" stroke-linecap="round" stroke-linejoin="round" class="grooph-glyph">
<title>Tournament then judge</title>
<path d="M11.8,8.7 L47.1,34.5" stroke-width="1.6" style="stroke:var(--edge, #5c6663)"/>
<path d="M47.1,34.5 L39.4,33.2 L43.5,27.6 Z" style="fill:var(--edge, #5c6663)"/>
<path d="M12,44 L44,44" stroke-width="1.6" style="stroke:var(--edge, #5c6663)"/>
<path d="M44,44 L37,47.5 L37,40.5 Z" style="fill:var(--edge, #5c6663)"/>
<path d="M11.8,79.3 L47.1,53.5" stroke-width="1.6" style="stroke:var(--edge, #5c6663)"/>
<path d="M47.1,53.5 L43.5,60.4 L39.4,54.8 Z" style="fill:var(--edge, #5c6663)"/>
<path d="M74,44 L103,44" stroke-width="1.6" style="stroke:var(--edge, #5c6663)"/>
<path d="M103,44 L96,47.5 L96,40.5 Z" style="fill:var(--edge, #5c6663)"/>
<path d="M135,44 L166,44" stroke-width="1.6" style="stroke:var(--edge, #5c6663)"/>
<path d="M166,44 L159,47.5 L159,40.5 Z" style="fill:var(--edge, #5c6663)"/>
<path d="M192,44 L231,44" stroke-width="1.6" style="stroke:var(--edge, #5c6663)"/>
<path d="M231,44 L224,47.5 L224,40.5 Z" style="fill:var(--edge, #5c6663)"/>
<rect x="-11" y="-11" width="22" height="22" rx="2" stroke-width="1.8" style="fill:var(--accent-soft, #e3efe9);stroke:var(--kind-agent, #1f5f4a)"/>
<rect x="-11" y="33" width="22" height="22" rx="2" stroke-width="1.8" style="fill:var(--accent-soft, #e3efe9);stroke:var(--kind-agent, #1f5f4a)"/>
<rect x="-11" y="77" width="22" height="22" rx="2" stroke-width="1.8" style="fill:var(--accent-soft, #e3efe9);stroke:var(--kind-agent, #1f5f4a)"/>
<path d="M53,32 L67,32 L74,44 L67,56 L53,56 L46,44 Z" stroke-width="1.8" style="fill:var(--surface, #ffffff);stroke:var(--kind-check, #2b5f9e)"/>
<path d="M120,30 L134,44 L120,58 L106,44 Z" stroke-width="1.8" style="fill:var(--accent-soft, #e3efe9);stroke:var(--kind-agent, #1f5f4a)"/>
<rect x="169" y="33" width="22" height="22" rx="2" stroke-width="1.8" style="fill:var(--accent-soft, #e3efe9);stroke:var(--kind-agent, #1f5f4a)"/>
<circle cx="240" cy="44" r="6" style="fill:var(--ink, #2b302e)"/>
</svg>
