<svg xmlns="http://www.w3.org/2000/svg" class="grooph-picture" data-picture="graph" viewBox="0 0 400 1260.5" width="400" height="1260.5" role="img" font-family="system-ui, -apple-system, 'Segoe UI', Roboto, 'Helvetica Neue', Arial, sans-serif"><title>Research study</title><style>.grooph-picture{--gp-bg:#f1f4f3;--gp-surface:#fdfefe;--gp-surface-2:#e8edeb;--gp-ink:#1a201e;--gp-ink-2:#454c49;--gp-ink-3:#5f6764;--gp-line:#dce1df;--gp-line-strong:#b9c1be;--gp-accent:#1f5f4a;--gp-accent-soft:#dcefe6;--gp-gate:#b25e09;--gp-gate-soft:#fcf0d9;--gp-check:#2b5f9e;--gp-merge:#6b4fa0;--gp-stop:#5b5f66;--gp-ok:#1f7a4d;--gp-ok-soft:#dff3e6;--gp-warning:#955500;--gp-error:#b42318;--gp-error-soft:#fceae7;--gp-loop-0:#7a4cc2;--gp-loop-1:#0f7c8c;--gp-loop-2:#c2410c;--gp-loop-3:#b5306e}@media (prefers-color-scheme:dark){.grooph-picture:not([data-theme="light"]){--gp-bg:#111514;--gp-surface:#1b201e;--gp-surface-2:#242a27;--gp-ink:#ebefed;--gp-ink-2:#c0c7c4;--gp-ink-3:#99a19e;--gp-line:#2d3331;--gp-line-strong:#4a524f;--gp-accent:#5dbb94;--gp-accent-soft:#1e3a30;--gp-gate:#eb9a45;--gp-gate-soft:#362a15;--gp-check:#6fa3e0;--gp-merge:#a88be0;--gp-stop:#9ba0a8;--gp-ok:#6fcf9d;--gp-ok-soft:#1c3a2a;--gp-warning:#f0b35a;--gp-error:#ff8f80;--gp-error-soft:#3a1e1b;--gp-loop-0:#a883f0;--gp-loop-1:#3cc0d0;--gp-loop-2:#f0874f;--gp-loop-3:#ee6fa6}}.grooph-picture[data-theme="dark"]{--gp-bg:#111514;--gp-surface:#1b201e;--gp-surface-2:#242a27;--gp-ink:#ebefed;--gp-ink-2:#c0c7c4;--gp-ink-3:#99a19e;--gp-line:#2d3331;--gp-line-strong:#4a524f;--gp-accent:#5dbb94;--gp-accent-soft:#1e3a30;--gp-gate:#eb9a45;--gp-gate-soft:#362a15;--gp-check:#6fa3e0;--gp-merge:#a88be0;--gp-stop:#9ba0a8;--gp-ok:#6fcf9d;--gp-ok-soft:#1c3a2a;--gp-warning:#f0b35a;--gp-error:#ff8f80;--gp-error-soft:#3a1e1b;--gp-loop-0:#a883f0;--gp-loop-1:#3cc0d0;--gp-loop-2:#f0874f;--gp-loop-3:#ee6fa6}</style><rect x="0" y="0" width="400" height="1260.5" style="fill:var(--gp-bg)"/><text x="12" y="35" font-size="17" font-weight="700" style="fill:var(--gp-ink)">Research study</text><text x="12" y="52" font-size="11" style="fill:var(--gp-ink-3)">8 agents · 1 gate · 2 loops · up to 6 rounds</text><text x="12" y="71.5" font-size="11.5" style="fill:var(--gp-ink-2)">Do short daily quizzes raise exam scores in a first statistics</text><text x="12" y="86" font-size="11.5" style="fill:var(--gp-ink-2)">course? Done when REPORT.md says what was planned, what</text><text x="12" y="100.5" font-size="11.5" style="fill:var(--gp-ink-2)">was found, and what it does not show.</text><g data-edge="e-question-design"><path d="M179.5,174 V198.5" fill="none" stroke-width="1.5" stroke-linecap="round" style="stroke:var(--gp-ink-2)"/><path d="M179.5,203.5 l-3.6,-6.5 h7.2 z" style="fill:var(--gp-ink-2)"/></g><g data-edge="e-design-critic"><path d="M179.5,263.5 V288" fill="none" stroke-width="1.5" stroke-linecap="round" style="stroke:var(--gp-ink-2)"/><path d="M179.5,293 l-3.6,-6.5 h7.2 z" style="fill:var(--gp-ink-2)"/></g><g data-edge="e-design-critic-pass"><path d="M179.5,353 V377.5" fill="none" stroke-width="1.5" stroke-linecap="round" style="stroke:var(--gp-ink-2)"/><path d="M179.5,382.5 l-3.6,-6.5 h7.2 z" style="fill:var(--gp-ink-2)"/></g><g data-edge="e-lock-preregister"><path d="M179.5,442.5 V467" fill="none" stroke-width="1.5" stroke-linecap="round" style="stroke:var(--gp-ink-2)"/><path d="M179.5,472 l-3.6,-6.5 h7.2 z" style="fill:var(--gp-ink-2)"/></g><g data-edge="e-preregister-collect"><path d="M179.5,532 V556.5" fill="none" stroke-width="1.5" stroke-linecap="round" style="stroke:var(--gp-ink-2)"/><path d="M179.5,561.5 l-3.6,-6.5 h7.2 z" style="fill:var(--gp-ink-2)"/></g><g data-edge="e-collect-analyze"><path d="M179.5,621.5 V646" fill="none" stroke-width="1.5" stroke-linecap="round" style="stroke:var(--gp-ink-2)"/><path d="M179.5,651 l-3.6,-6.5 h7.2 z" style="fill:var(--gp-ink-2)"/></g><g data-edge="e-analyze-critic"><path d="M179.5,711 V735.5" fill="none" stroke-width="1.5" stroke-linecap="round" style="stroke:var(--gp-ink-2)"/><path d="M179.5,740.5 l-3.6,-6.5 h7.2 z" style="fill:var(--gp-ink-2)"/></g><g data-edge="e-analysis-critic-pass"><path d="M179.5,800.5 V825" fill="none" stroke-width="1.5" stroke-linecap="round" style="stroke:var(--gp-ink-2)"/><path d="M179.5,830 l-3.6,-6.5 h7.2 z" style="fill:var(--gp-ink-2)"/></g><g data-edge="e-write-done"><path d="M179.5,890 V914.5" fill="none" stroke-width="1.5" stroke-linecap="round" style="stroke:var(--gp-ink-2)"/><path d="M179.5,919.5 l-3.6,-6.5 h7.2 z" style="fill:var(--gp-ink-2)"/></g><g data-edge="e-design-critic-fail"><path d="M347,323.3 H357 Q363,323.3 363,317.3 V233.8 Q363,227.8 357,227.8 H352.5" fill="none" stroke-width="1.6" stroke-linecap="round" stroke-dasharray="5 3" style="stroke:var(--gp-loop-0)"/><circle cx="347" cy="323.3" r="2.2" style="fill:var(--gp-loop-0)"/><path d="M347.5,227.8 l6.5,-3.6 v7.2 z" style="fill:var(--gp-loop-0)"/></g><g data-edge="e-lock-not-yet"><path d="M347,412.8 H370 Q376,412.8 376,406.8 V245.8 Q376,239.8 370,239.8 H352.5" fill="none" stroke-width="1.6" stroke-linecap="round" stroke-dasharray="5 3" style="stroke:var(--gp-loop-0)"/><circle cx="347" cy="412.8" r="2.2" style="fill:var(--gp-loop-0)"/><path d="M347.5,239.8 l6.5,-3.6 v7.2 z" style="fill:var(--gp-loop-0)"/></g><g data-edge="e-analysis-critic-fail"><path d="M347,770.8 H357 Q363,770.8 363,764.8 V687.3 Q363,681.3 357,681.3 H352.5" fill="none" stroke-width="1.6" stroke-linecap="round" stroke-dasharray="5 3" style="stroke:var(--gp-loop-1)"/><circle cx="347" cy="770.8" r="2.2" style="fill:var(--gp-loop-1)"/><path d="M347.5,681.3 l6.5,-3.6 v7.2 z" style="fill:var(--gp-loop-1)"/></g><g data-node="question"><rect data-card="" x="12" y="114.5" width="335" height="59.5" rx="9" stroke-width="1" style="fill:var(--gp-surface);stroke:var(--gp-line-strong)"/><circle cx="25.5" cy="129.1" r="3.5" style="fill:var(--gp-accent)"/><text x="33" y="132.5" font-size="9.5" font-weight="700" style="fill:var(--gp-accent)">Agent</text><text x="22" y="152" font-size="13.5" font-weight="700" style="fill:var(--gp-ink)">State the question</text><text x="22" y="165" font-size="10.5" style="fill:var(--gp-ink-2)">planner</text></g><g data-node="design"><rect data-card="" x="12" y="204" width="335" height="59.5" rx="9" stroke-width="1" style="fill:var(--gp-surface);stroke:var(--gp-line-strong)"/><circle cx="25.5" cy="218.6" r="3.5" style="fill:var(--gp-accent)"/><text x="33" y="222" font-size="9.5" font-weight="700" style="fill:var(--gp-accent)">Agent</text><circle cx="333.5" cy="218.6" r="3.5" style="fill:var(--gp-loop-0)"/><text x="22" y="241.5" font-size="13.5" font-weight="700" style="fill:var(--gp-ink)">Design the study</text><text x="22" y="254.5" font-size="10.5" style="fill:var(--gp-ink-2)">planner</text></g><g data-node="design-critic"><rect data-card="" x="12" y="293.5" width="335" height="59.5" rx="9" stroke-width="1" style="fill:var(--gp-surface);stroke:var(--gp-line-strong)"/><circle cx="25.5" cy="308.1" r="3.5" style="fill:var(--gp-accent)"/><text x="33" y="311.5" font-size="9.5" font-weight="700" style="fill:var(--gp-accent)">Agent</text><circle cx="333.5" cy="308.1" r="3.5" style="fill:var(--gp-loop-0)"/><text x="22" y="331" font-size="13.5" font-weight="700" style="fill:var(--gp-ink)">A critic reads the design</text><text x="22" y="344" font-size="10.5" style="fill:var(--gp-ink-2)">critic · strong</text></g><g data-node="lock"><rect data-card="" x="12" y="383" width="335" height="59.5" rx="9" stroke-width="1.8" style="fill:var(--gp-surface);stroke:var(--gp-gate)"/><circle cx="25.5" cy="397.6" r="3.5" style="fill:var(--gp-gate)"/><text x="33" y="401" font-size="9.5" font-weight="700" style="fill:var(--gp-gate)">Human gate</text><circle cx="333.5" cy="397.6" r="3.5" style="fill:var(--gp-loop-0)"/><text x="22" y="420.5" font-size="13.5" font-weight="700" style="fill:var(--gp-ink)">Lock the design</text><text x="22" y="433.5" font-size="10.5" style="fill:var(--gp-ink-2)">lock it / not yet</text></g><g data-node="preregister"><rect data-card="" x="12" y="472.5" width="335" height="59.5" rx="9" stroke-width="1" style="fill:var(--gp-surface);stroke:var(--gp-line-strong)"/><circle cx="25.5" cy="487.1" r="3.5" style="fill:var(--gp-accent)"/><text x="33" y="490.5" font-size="9.5" font-weight="700" style="fill:var(--gp-accent)">Agent</text><text x="22" y="510" font-size="13.5" font-weight="700" style="fill:var(--gp-ink)">Pre-register the plan</text><text x="22" y="523" font-size="10.5" style="fill:var(--gp-ink-2)">planner</text></g><g data-node="collect"><rect data-card="" x="12" y="562" width="335" height="59.5" rx="9" stroke-width="1" style="fill:var(--gp-surface);stroke:var(--gp-line-strong)"/><circle cx="25.5" cy="576.6" r="3.5" style="fill:var(--gp-accent)"/><text x="33" y="580" font-size="9.5" font-weight="700" style="fill:var(--gp-accent)">Agent</text><text x="22" y="599.5" font-size="13.5" font-weight="700" style="fill:var(--gp-ink)">Collect the data</text><text x="22" y="612.5" font-size="10.5" style="fill:var(--gp-ink-2)">researcher</text></g><g data-node="analyze"><rect data-card="" x="12" y="651.5" width="335" height="59.5" rx="9" stroke-width="1" style="fill:var(--gp-surface);stroke:var(--gp-line-strong)"/><circle cx="25.5" cy="666.1" r="3.5" style="fill:var(--gp-accent)"/><text x="33" y="669.5" font-size="9.5" font-weight="700" style="fill:var(--gp-accent)">Agent</text><circle cx="333.5" cy="666.1" r="3.5" style="fill:var(--gp-loop-1)"/><text x="22" y="689" font-size="13.5" font-weight="700" style="fill:var(--gp-ink)">Run the planned analysis</text><text x="22" y="702" font-size="10.5" style="fill:var(--gp-ink-2)">researcher</text></g><g data-node="analysis-critic"><rect data-card="" x="12" y="741" width="335" height="59.5" rx="9" stroke-width="1" style="fill:var(--gp-surface);stroke:var(--gp-line-strong)"/><circle cx="25.5" cy="755.6" r="3.5" style="fill:var(--gp-accent)"/><text x="33" y="759" font-size="9.5" font-weight="700" style="fill:var(--gp-accent)">Agent</text><circle cx="333.5" cy="755.6" r="3.5" style="fill:var(--gp-loop-1)"/><text x="22" y="778.5" font-size="13.5" font-weight="700" style="fill:var(--gp-ink)">A critic reads the analysis</text><text x="22" y="791.5" font-size="10.5" style="fill:var(--gp-ink-2)">critic · strong</text></g><g data-node="write"><rect data-card="" x="12" y="830.5" width="335" height="59.5" rx="9" stroke-width="1" style="fill:var(--gp-surface);stroke:var(--gp-line-strong)"/><circle cx="25.5" cy="845.1" r="3.5" style="fill:var(--gp-accent)"/><text x="33" y="848.5" font-size="9.5" font-weight="700" style="fill:var(--gp-accent)">Agent</text><text x="22" y="868" font-size="13.5" font-weight="700" style="fill:var(--gp-ink)">Write the report</text><text x="22" y="881" font-size="10.5" style="fill:var(--gp-ink-2)">synthesizer</text></g><g data-node="done"><rect data-card="" x="12" y="920" width="335" height="59.5" rx="16" stroke-width="1" style="fill:var(--gp-surface);stroke:var(--gp-line-strong)"/><circle cx="25.5" cy="934.6" r="3.5" style="fill:var(--gp-stop)"/><text x="33" y="938" font-size="9.5" font-weight="700" style="fill:var(--gp-stop)">Stop</text><text x="22" y="957.5" font-size="13.5" font-weight="700" style="fill:var(--gp-ink)">Done</text><text x="22" y="970.5" font-size="10.5" style="fill:var(--gp-ink-2)">success</text></g><rect x="161.8" y="360.9" width="35.4" height="14.7" rx="7.4" stroke-width="1" style="fill:var(--gp-bg);stroke:var(--gp-ink-2)"/><text x="179.5" y="371.2" font-size="9.5" font-weight="700" text-anchor="middle" style="fill:var(--gp-ink-2)">pass</text><rect x="161.8" y="450.4" width="35.4" height="14.7" rx="7.4" stroke-width="1" style="fill:var(--gp-bg);stroke:var(--gp-ink-2)"/><text x="179.5" y="460.7" font-size="9.5" font-weight="700" text-anchor="middle" style="fill:var(--gp-ink-2)">pass</text><rect x="161.8" y="808.4" width="35.4" height="14.7" rx="7.4" stroke-width="1" style="fill:var(--gp-bg);stroke:var(--gp-ink-2)"/><text x="179.5" y="818.7" font-size="9.5" font-weight="700" text-anchor="middle" style="fill:var(--gp-ink-2)">pass</text><g transform="rotate(-90 363 275.5)"><rect x="350.3" y="269" width="25.4" height="13" rx="6.5" stroke-width="1" style="fill:var(--gp-bg);stroke:var(--gp-loop-0)"/><text x="363" y="278.7" font-size="9" font-weight="700" text-anchor="middle" style="fill:var(--gp-loop-0)">fail</text></g><g transform="rotate(-90 376 326.3)"><rect x="363.3" y="319.8" width="25.4" height="13" rx="6.5" stroke-width="1" style="fill:var(--gp-bg);stroke:var(--gp-loop-0)"/><text x="376" y="329.5" font-size="9" font-weight="700" text-anchor="middle" style="fill:var(--gp-loop-0)">fail</text></g><g transform="rotate(-90 363 726)"><rect x="350.3" y="719.5" width="25.4" height="13" rx="6.5" stroke-width="1" style="fill:var(--gp-bg);stroke:var(--gp-loop-1)"/><text x="363" y="729.2" font-size="9" font-weight="700" text-anchor="middle" style="fill:var(--gp-loop-1)">fail</text></g><text x="12" y="1008.5" font-size="12.5" font-weight="700" style="fill:var(--gp-ink)">Loops</text><g data-loop="design-loop"><circle cx="17" cy="1025.5" r="4.5" style="fill:var(--gp-loop-0)"/><text x="28" y="1029.5" font-size="12" font-weight="700" style="fill:var(--gp-ink)">Design</text><text x="28" y="1043" font-size="11" style="fill:var(--gp-ink-3)">judgment loop · Design the study, A critic reads the design,</text><text x="28" y="1056.5" font-size="11" style="fill:var(--gp-ink-3)">Lock the design</text><text x="28" y="1070" font-size="11" style="fill:var(--gp-ink-2)">Bar: A design that could fail. DESIGN.md says what is</text><text x="28" y="1083.5" font-size="11" style="fill:var(--gp-ink-2)">measured and on how many, what result would count against</text><text x="28" y="1097" font-size="11" style="fill:var(--gp-ink-2)">the idea, and what else could explain it.</text><text x="28" y="1110.5" font-size="11" style="fill:var(--gp-ink-2)">1. bar passed: follow the loop's pass exit edges</text><text x="28" y="1124" font-size="11" style="fill:var(--gp-ink-2)">2. max iterations: 3: halt the run and report to the human</text></g><g data-loop="analysis-loop"><circle cx="17" cy="1144" r="4.5" style="fill:var(--gp-loop-1)"/><text x="28" y="1148" font-size="12" font-weight="700" style="fill:var(--gp-ink)">Analysis</text><text x="28" y="1161.5" font-size="11" style="fill:var(--gp-ink-3)">judgment loop · Run the planned analysis, A critic reads the</text><text x="28" y="1175" font-size="11" style="fill:var(--gp-ink-3)">analysis</text><text x="28" y="1188.5" font-size="11" style="fill:var(--gp-ink-2)">Bar: The planned analysis. Every planned analysis is in</text><text x="28" y="1202" font-size="11" style="fill:var(--gp-ink-2)">ANALYSIS.md as planned, the rest is labeled exploratory, and</text><text x="28" y="1215.5" font-size="11" style="fill:var(--gp-ink-2)">each conclusion follows from its numbers.</text><text x="28" y="1229" font-size="11" style="fill:var(--gp-ink-2)">1. bar passed: follow the loop's pass exit edges</text><text x="28" y="1242.5" font-size="11" style="fill:var(--gp-ink-2)">2. max iterations: 3: halt the run and report to the human</text></g></svg>
