<svg xmlns="http://www.w3.org/2000/svg" class="grooph-picture" data-picture="map" viewBox="0 0 400 1333.5" width="400" height="1333.5" role="img" font-family="system-ui, -apple-system, 'Segoe UI', Roboto, 'Helvetica Neue', Arial, sans-serif"><title>A bot fleet: two Bots, a dot and their person</title><rect x="0" y="0" width="400" height="1333.5" style="fill:#111514"/><text x="12" y="35" font-size="17" font-weight="700" style="fill:#ebefed">A bot fleet: two Bots, a dot and their</text><text x="12" y="56" font-size="17" font-weight="700" style="fill:#ebefed">person</text><text x="12" y="73" font-size="11" style="fill:#99a19e">as of 2026-10-05 · 2 lanes · 4 sessions · 1 person · 10 handoffs,</text><text x="12" y="86" font-size="11" style="fill:#99a19e">2 waiting on a person</text><g data-people=""><rect x="12" y="98" width="376" height="106.5" rx="12" stroke-width="1" stroke-dasharray="5 4" style="fill:#242a27;stroke:#2d3331"/><text x="22" y="118" font-size="12.5" font-weight="700" style="fill:#ebefed">Person</text></g><g data-lane="bots-computer"><rect x="12" y="214.5" width="376" height="254" rx="12" stroke-width="1" style="fill:#242a27;stroke:#2d3331"/><text x="22" y="234.5" font-size="12.5" font-weight="700" style="fill:#ebefed">The Bots' cloud computer</text><rect x="257.9" y="223.7" width="40.1" height="14.7" rx="7.4" stroke-width="1" style="fill:#1b201e;stroke:#4a524f"/><text x="278" y="234" font-size="9.5" font-weight="700" text-anchor="middle" style="fill:#c0c7c4">cloud</text><text x="22" y="248" font-size="10.5" style="fill:#99a19e">one cloud computer, shared by every Bot of this</text><text x="22" y="261.5" font-size="10.5" style="fill:#99a19e">account · the person's Cursor account</text></g><g data-lane="dot-computer"><rect x="12" y="478.5" width="376" height="267.5" rx="12" stroke-width="1" style="fill:#242a27;stroke:#2d3331"/><text x="22" y="498.5" font-size="12.5" font-weight="700" style="fill:#ebefed">The dot's cloud computer</text><rect x="257.9" y="487.7" width="40.1" height="14.7" rx="7.4" stroke-width="1" style="fill:#1b201e;stroke:#4a524f"/><text x="278" y="498" font-size="9.5" font-weight="700" text-anchor="middle" style="fill:#c0c7c4">cloud</text><text x="22" y="512" font-size="10.5" style="fill:#99a19e">the dot's own cloud computer · the person's</text><text x="22" y="525.5" font-size="10.5" style="fill:#99a19e">ChatGPT account</text></g><g data-person="person"><rect data-card="" x="20" y="127.5" width="278" height="69" rx="14" stroke-width="1.4" style="fill:#362a15;stroke:#eb9a45"/><text x="30" y="148.5" font-size="13.5" font-weight="700" style="fill:#ebefed">The person</text><text x="30" y="164" font-size="11" style="fill:#c0c7c4">Asks, approves, and carries what the two</text><text x="30" y="177.5" font-size="11" style="fill:#c0c7c4">platforms do not pass to each other</text></g><g data-session="scout"><rect data-card="" x="20" y="271" width="278" height="105" rx="9" stroke-width="1" style="fill:#1b201e;stroke:#4a524f"/><text x="30" y="292" font-size="13.5" font-weight="700" style="fill:#ebefed">Scout</text><text x="30" y="306" font-size="10.5" font-weight="700" style="fill:#5dbb94">grok-bot</text><text x="30" y="321.5" font-size="11" style="fill:#c0c7c4">Watches the sources and gathers what</text><text x="30" y="335" font-size="11" style="fill:#c0c7c4">changed</text><text x="30" y="349" font-size="10" style="fill:#99a19e">long-lived</text><circle data-wakes="" cx="34.2" cy="360.6" r="3.6" fill="none" stroke-width="1.8" stroke-dasharray="1.5 2.2" style="stroke:#a88be0"/><text x="43" y="364" font-size="10" font-weight="700" style="fill:#a88be0">wakes itself · weekdays at 8:00</text></g><g data-session="scribe"><rect data-card="" x="20" y="384" width="278" height="76.5" rx="9" stroke-width="1" style="fill:#1b201e;stroke:#4a524f"/><text x="30" y="405" font-size="13.5" font-weight="700" style="fill:#ebefed">Scribe</text><text x="30" y="419" font-size="10.5" font-weight="700" style="fill:#5dbb94">grok-bot</text><text x="30" y="434.5" font-size="11" style="fill:#c0c7c4">Turns what Scout found into a draft</text><text x="30" y="448.5" font-size="10" style="fill:#99a19e">long-lived</text></g><g data-session="dot"><rect data-card="" x="20" y="535" width="278" height="105" rx="9" stroke-width="1" style="fill:#1b201e;stroke:#4a524f"/><text x="30" y="556" font-size="13.5" font-weight="700" style="fill:#ebefed">The dot</text><text x="30" y="570" font-size="10.5" font-weight="700" style="fill:#5dbb94">chatgpt · GPT-6 Astra</text><text x="30" y="585.5" font-size="11" style="fill:#c0c7c4">Keeps the plan current and brings back</text><text x="30" y="599" font-size="11" style="fill:#c0c7c4">decisions</text><text x="30" y="613" font-size="10" style="fill:#99a19e">long-lived</text><circle data-wakes="" cx="34.2" cy="624.6" r="3.6" fill="none" stroke-width="1.8" stroke-dasharray="1.5 2.2" style="stroke:#a88be0"/><text x="43" y="628" font-size="10" font-weight="700" style="fill:#a88be0">wakes itself · weekdays at 9:00</text></g><g data-session="dot-threads"><rect data-card="" x="20" y="648" width="278" height="90" rx="9" stroke-width="1" style="fill:#1b201e;stroke:#4a524f"/><text x="30" y="669" font-size="13.5" font-weight="700" style="fill:#ebefed">The dot's cloud threads</text><text x="30" y="683" font-size="10.5" font-weight="700" style="fill:#5dbb94">chatgpt</text><text x="30" y="698.5" font-size="11" style="fill:#c0c7c4">One piece of the dot's work each, in a</text><text x="30" y="712" font-size="11" style="fill:#c0c7c4">conversation of its own</text><text x="30" y="726" font-size="10" style="fill:#99a19e">per task</text></g><g data-plate="h-job"><circle cx="314" cy="220" r="7.2" stroke-width="1.3" style="fill:#111514;stroke:#c0c7c4"/></g><g data-plate="h-found"><circle cx="314" cy="372.9" r="7.2" stroke-width="1.3" style="fill:#111514;stroke:#c0c7c4"/></g><g data-plate="h-files"><circle cx="327" cy="393.9" r="7.2" stroke-width="1.3" style="fill:#111514;stroke:#99a19e"/></g><g data-plate="h-draft"><circle cx="340" cy="295.4" r="7.2" stroke-width="1.3" style="fill:#111514;stroke:#3cc0d0"/></g><g data-plate="h-carry"><circle cx="353" cy="361.8" r="7.2" stroke-width="1.3" style="fill:#111514;stroke:#eb9a45"/></g><g data-plate="h-piece"><circle cx="314" cy="646.8" r="7.2" stroke-width="1.3" style="fill:#111514;stroke:#c0c7c4"/></g><g data-plate="h-result"><circle cx="327" cy="667.8" r="7.2" stroke-width="1.3" style="fill:#111514;stroke:#c0c7c4"/></g><g data-plate="h-decision"><rect x="357.5" y="375.6" width="16.9" height="14.4" rx="7.2" stroke-width="1.3" style="fill:#111514;stroke:#3cc0d0"/></g><g data-handoff="h-job"><path d="M298,142.5 H308 Q314,142.5 314,148.5 V212.8 M314,227.2 V291.5 Q314,297.5 308,297.5 H303.5" fill="none" stroke-width="1.4" stroke-linecap="round" stroke-dasharray="5 3" style="stroke:#c0c7c4"/><circle cx="298" cy="142.5" r="2.2" style="fill:#c0c7c4"/><path d="M298.5,297.5 l6.5,-3.6 v7.2 z" style="fill:#c0c7c4"/></g><g data-handoff="h-routine"><path d="M298,310.5 H308 Q314,310.5 314,316.5 V317.5 Q314,323.5 308,323.5 H303.5" fill="none" stroke-width="1.8" stroke-linecap="round" stroke-dasharray="1.5 3" style="stroke:#a88be0"/><circle cx="298" cy="310.5" r="2.2" style="fill:#a88be0"/><path d="M298.5,323.5 l6.5,-3.6 v7.2 z" style="fill:#a88be0"/></g><g data-plate="h-routine"><circle cx="314" cy="317" r="7.2" stroke-width="1.3" style="fill:#111514;stroke:#a88be0"/></g><g data-handoff="h-found"><path d="M298,336.5 H308 Q314,336.5 314,342.5 V365.7 M314,380.1 V403.3 Q314,409.3 308,409.3 H303.5" fill="none" stroke-width="1.4" stroke-linecap="round" stroke-dasharray="5 3" style="stroke:#c0c7c4"/><circle cx="298" cy="336.5" r="2.2" style="fill:#c0c7c4"/><path d="M298.5,409.3 l6.5,-3.6 v7.2 z" style="fill:#c0c7c4"/></g><g data-handoff="h-files"><path d="M298,349.5 H321 Q327,349.5 327,355.5 V386.7 M327,401.1 V416.3 Q327,422.3 321,422.3 H303.5" fill="none" stroke-width="1.4" stroke-linecap="round" stroke-dasharray="3 3" style="stroke:#99a19e"/><circle cx="298" cy="349.5" r="2.2" style="fill:#99a19e"/><path d="M298.5,422.3 l6.5,-3.6 v7.2 z" style="fill:#99a19e"/></g><g data-handoff="h-draft"><path d="M298,435.3 H334 Q340,435.3 340,429.3 V302.6 M340,288.2 V161.5 Q340,155.5 334,155.5 H303.5" fill="none" stroke-width="2.6" stroke-linecap="round" stroke-dasharray="0.1 4.5" style="stroke:#3cc0d0"/><circle cx="298" cy="435.3" r="2.2" style="fill:#3cc0d0"/><path d="M298.5,155.5 l6.5,-3.6 v7.2 z" style="fill:#3cc0d0"/></g><g data-handoff="h-carry"><path d="M298,168.5 H347 Q353,168.5 353,174.5 V354.6 M353,369 V549 Q353,555 347,555 H303.5" fill="none" stroke-width="2.4" stroke-linecap="round" style="stroke:#eb9a45"/><circle cx="298" cy="168.5" r="2.2" style="fill:#eb9a45"/><path d="M298.5,555 l6.5,-3.6 v7.2 z" style="fill:#eb9a45"/></g><g data-handoff="h-piece"><path d="M298,607 H308 Q314,607 314,613 V639.6 M314,654 V680.5 Q314,686.5 308,686.5 H303.5" fill="none" stroke-width="1.4" stroke-linecap="round" stroke-dasharray="5 3" style="stroke:#c0c7c4"/><circle cx="298" cy="607" r="2.2" style="fill:#c0c7c4"/><path d="M298.5,686.5 l6.5,-3.6 v7.2 z" style="fill:#c0c7c4"/></g><g data-handoff="h-result"><path d="M298,699.5 H321 Q327,699.5 327,693.5 V675 M327,660.6 V626 Q327,620 321,620 H303.5" fill="none" stroke-width="1.4" stroke-linecap="round" stroke-dasharray="5 3" style="stroke:#c0c7c4"/><circle cx="298" cy="699.5" r="2.2" style="fill:#c0c7c4"/><path d="M298.5,620 l6.5,-3.6 v7.2 z" style="fill:#c0c7c4"/></g><g data-handoff="h-recurring"><path d="M298,581 H308 Q314,581 314,587 V588 Q314,594 308,594 H303.5" fill="none" stroke-width="1.8" stroke-linecap="round" stroke-dasharray="1.5 3" style="stroke:#a88be0"/><circle cx="298" cy="581" r="2.2" style="fill:#a88be0"/><path d="M298.5,594 l6.5,-3.6 v7.2 z" style="fill:#a88be0"/></g><g data-plate="h-recurring"><circle cx="314" cy="587.5" r="7.2" stroke-width="1.3" style="fill:#111514;stroke:#a88be0"/></g><g data-handoff="h-decision"><path d="M298,568 H360 Q366,568 366,562 V390 M366,375.6 V187.5 Q366,181.5 360,181.5 H303.5" fill="none" stroke-width="2.6" stroke-linecap="round" stroke-dasharray="0.1 4.5" style="stroke:#3cc0d0"/><circle cx="298" cy="568" r="2.2" style="fill:#3cc0d0"/><path d="M298.5,181.5 l6.5,-3.6 v7.2 z" style="fill:#3cc0d0"/></g><g data-number="h-job"><text x="314" y="223.3" font-size="9.5" font-weight="700" text-anchor="middle" style="fill:#ebefed">1</text></g><g data-number="h-routine"><text x="314" y="320.3" font-size="9.5" font-weight="700" text-anchor="middle" style="fill:#ebefed">2</text></g><g data-number="h-found"><text x="314" y="376.2" font-size="9.5" font-weight="700" text-anchor="middle" style="fill:#ebefed">3</text></g><g data-number="h-files"><text x="327" y="397.2" font-size="9.5" font-weight="700" text-anchor="middle" style="fill:#ebefed">4</text></g><g data-number="h-draft"><text x="340" y="298.7" font-size="9.5" font-weight="700" text-anchor="middle" style="fill:#ebefed">5</text></g><g data-number="h-carry"><text x="353" y="365.1" font-size="9.5" font-weight="700" text-anchor="middle" style="fill:#ebefed">6</text></g><g data-number="h-piece"><text x="314" y="650.1" font-size="9.5" font-weight="700" text-anchor="middle" style="fill:#ebefed">7</text></g><g data-number="h-result"><text x="327" y="671.1" font-size="9.5" font-weight="700" text-anchor="middle" style="fill:#ebefed">8</text></g><g data-number="h-recurring"><text x="314" y="590.8" font-size="9.5" font-weight="700" text-anchor="middle" style="fill:#ebefed">9</text></g><g data-number="h-decision"><text x="366" y="386.1" font-size="8.5" font-weight="700" text-anchor="middle" style="fill:#ebefed">10</text></g><text x="12" y="773" font-size="12.5" font-weight="700" style="fill:#ebefed">Handoffs</text><g data-handoff-row="h-job"><rect data-row="" x="8" y="780" width="384" height="47.5" rx="8" style="fill:transparent"/><circle cx="20" cy="790" r="7.2" stroke-width="1.3" style="fill:#111514;stroke:#c0c7c4"/><text x="20" y="793.3" font-size="9.5" font-weight="700" text-anchor="middle" style="fill:#ebefed">1</text><text x="36" y="794" font-size="12" font-weight="700" style="fill:#ebefed">The person → Scout</text><path d="M36,804.5 h18" fill="none" stroke-width="1.4" stroke-linecap="round" stroke-dasharray="5 3" style="stroke:#c0c7c4"/><text x="60" y="808" font-size="11" font-weight="700" style="fill:#c0c7c4">session message</text><text x="36" y="821.5" font-size="11" style="fill:#c0c7c4">a standing job, typed in Scout's chat</text></g><g data-handoff-row="h-routine"><rect data-row="" x="8" y="830.5" width="384" height="47.5" rx="8" style="fill:transparent"/><circle cx="20" cy="840.5" r="7.2" stroke-width="1.3" style="fill:#111514;stroke:#a88be0"/><text x="20" y="843.8" font-size="9.5" font-weight="700" text-anchor="middle" style="fill:#ebefed">2</text><text x="36" y="844.5" font-size="12" font-weight="700" style="fill:#ebefed">Scout → itself</text><path d="M36,855 h18" fill="none" stroke-width="1.8" stroke-linecap="round" stroke-dasharray="1.5 3" style="stroke:#a88be0"/><text x="60" y="858.5" font-size="11" font-weight="700" style="fill:#a88be0">scheduled message, weekdays at 8:00</text><text x="36" y="872" font-size="11" style="fill:#c0c7c4">a routine, in the person's time zone: check the sources</text></g><g data-handoff-row="h-found"><rect data-row="" x="8" y="881" width="384" height="47.5" rx="8" style="fill:transparent"/><circle cx="20" cy="891" r="7.2" stroke-width="1.3" style="fill:#111514;stroke:#c0c7c4"/><text x="20" y="894.3" font-size="9.5" font-weight="700" text-anchor="middle" style="fill:#ebefed">3</text><text x="36" y="895" font-size="12" font-weight="700" style="fill:#ebefed">Scout → Scribe</text><path d="M36,905.5 h18" fill="none" stroke-width="1.4" stroke-linecap="round" stroke-dasharray="5 3" style="stroke:#c0c7c4"/><text x="60" y="909" font-size="11" font-weight="700" style="fill:#c0c7c4">session message</text><text x="36" y="922.5" font-size="11" style="fill:#c0c7c4">what changed, as a message from one Bot to another</text></g><g data-handoff-row="h-files"><rect data-row="" x="8" y="931.5" width="384" height="47.5" rx="8" style="fill:transparent"/><circle cx="20" cy="941.5" r="7.2" stroke-width="1.3" style="fill:#111514;stroke:#99a19e"/><text x="20" y="944.8" font-size="9.5" font-weight="700" text-anchor="middle" style="fill:#ebefed">4</text><text x="36" y="945.5" font-size="12" font-weight="700" style="fill:#ebefed">Scout → Scribe</text><path d="M36,956 h18" fill="none" stroke-width="1.4" stroke-linecap="round" stroke-dasharray="3 3" style="stroke:#99a19e"/><text x="60" y="959.5" font-size="11" font-weight="700" style="fill:#99a19e">files in /workspace on the computer they share</text><text x="36" y="973" font-size="11" style="fill:#c0c7c4">the sources Scout saved</text></g><g data-handoff-row="h-draft"><rect data-row="" x="8" y="982" width="384" height="61" rx="8" style="fill:transparent"/><circle cx="20" cy="992" r="7.2" stroke-width="1.3" style="fill:#111514;stroke:#3cc0d0"/><text x="20" y="995.3" font-size="9.5" font-weight="700" text-anchor="middle" style="fill:#ebefed">5</text><text x="36" y="996" font-size="12" font-weight="700" style="fill:#ebefed">Scribe → The person</text><path d="M36,1006.5 h18" fill="none" stroke-width="2.6" stroke-linecap="round" stroke-dasharray="0.1 4.5" style="stroke:#3cc0d0"/><text x="60" y="1010" font-size="11" font-weight="700" style="fill:#3cc0d0">notification, the Grok Bot app, on the desktop or</text><text x="60" y="1023.5" font-size="11" font-weight="700" style="fill:#3cc0d0">the phone</text><text x="36" y="1037" font-size="11" style="fill:#c0c7c4">a draft, and a request to approve sending it on</text></g><g data-handoff-row="h-carry"><rect data-row="" x="8" y="1046" width="384" height="47.5" rx="8" style="fill:transparent"/><circle cx="20" cy="1056" r="7.2" stroke-width="1.3" style="fill:#111514;stroke:#eb9a45"/><text x="20" y="1059.3" font-size="9.5" font-weight="700" text-anchor="middle" style="fill:#ebefed">6</text><text x="36" y="1060" font-size="12" font-weight="700" style="fill:#ebefed">The person → The dot</text><path d="M36,1070.5 h18" fill="none" stroke-width="2.4" stroke-linecap="round" style="stroke:#eb9a45"/><text x="60" y="1074" font-size="11" font-weight="700" style="fill:#eb9a45">carried by The person</text><text x="36" y="1087.5" font-size="11" style="fill:#c0c7c4">pastes the draft into the dot's chat, with what to do with it</text></g><g data-handoff-row="h-piece"><rect data-row="" x="8" y="1096.5" width="384" height="47.5" rx="8" style="fill:transparent"/><circle cx="20" cy="1106.5" r="7.2" stroke-width="1.3" style="fill:#111514;stroke:#c0c7c4"/><text x="20" y="1109.8" font-size="9.5" font-weight="700" text-anchor="middle" style="fill:#ebefed">7</text><text x="36" y="1110.5" font-size="12" font-weight="700" style="fill:#ebefed">The dot → The dot's cloud threads</text><path d="M36,1121 h18" fill="none" stroke-width="1.4" stroke-linecap="round" stroke-dasharray="5 3" style="stroke:#c0c7c4"/><text x="60" y="1124.5" font-size="11" font-weight="700" style="fill:#c0c7c4">session message</text><text x="36" y="1138" font-size="11" style="fill:#c0c7c4">instructions and context for one piece</text></g><g data-handoff-row="h-result"><rect data-row="" x="8" y="1147" width="384" height="47.5" rx="8" style="fill:transparent"/><circle cx="20" cy="1157" r="7.2" stroke-width="1.3" style="fill:#111514;stroke:#c0c7c4"/><text x="20" y="1160.3" font-size="9.5" font-weight="700" text-anchor="middle" style="fill:#ebefed">8</text><text x="36" y="1161" font-size="12" font-weight="700" style="fill:#ebefed">The dot's cloud threads → The dot</text><path d="M36,1171.5 h18" fill="none" stroke-width="1.4" stroke-linecap="round" stroke-dasharray="5 3" style="stroke:#c0c7c4"/><text x="60" y="1175" font-size="11" font-weight="700" style="fill:#c0c7c4">session message</text><text x="36" y="1188.5" font-size="11" style="fill:#c0c7c4">the result, which the dot checks</text></g><g data-handoff-row="h-recurring"><rect data-row="" x="8" y="1197.5" width="384" height="61" rx="8" style="fill:transparent"/><circle cx="20" cy="1207.5" r="7.2" stroke-width="1.3" style="fill:#111514;stroke:#a88be0"/><text x="20" y="1210.8" font-size="9.5" font-weight="700" text-anchor="middle" style="fill:#ebefed">9</text><text x="36" y="1211.5" font-size="12" font-weight="700" style="fill:#ebefed">The dot → itself</text><path d="M36,1222 h18" fill="none" stroke-width="1.8" stroke-linecap="round" stroke-dasharray="1.5 3" style="stroke:#a88be0"/><text x="60" y="1225.5" font-size="11" font-weight="700" style="fill:#a88be0">scheduled message, weekdays at 9:00</text><text x="36" y="1239" font-size="11" style="fill:#c0c7c4">a recurring task with an end date: check the planning</text><text x="36" y="1252.5" font-size="11" style="fill:#c0c7c4">channel</text></g><g data-handoff-row="h-decision"><rect data-row="" x="8" y="1261.5" width="384" height="61" rx="8" style="fill:transparent"/><rect x="11.5" y="1264.3" width="16.9" height="14.4" rx="7.2" stroke-width="1.3" style="fill:#111514;stroke:#3cc0d0"/><text x="20" y="1274.8" font-size="8.5" font-weight="700" text-anchor="middle" style="fill:#ebefed">10</text><text x="36" y="1275.5" font-size="12" font-weight="700" style="fill:#ebefed">The dot → The person</text><path d="M36,1286 h18" fill="none" stroke-width="2.6" stroke-linecap="round" stroke-dasharray="0.1 4.5" style="stroke:#3cc0d0"/><text x="60" y="1289.5" font-size="11" font-weight="700" style="fill:#3cc0d0">notification, ChatGPT, or Slack where the person</text><text x="60" y="1303" font-size="11" font-weight="700" style="fill:#3cc0d0">asked for that</text><text x="36" y="1316.5" font-size="11" style="fill:#c0c7c4">a result, or a decision that needs them</text></g></svg>
