<svg xmlns="http://www.w3.org/2000/svg" class="grooph-picture" data-picture="map" viewBox="0 0 900 1746" width="900" height="1746" role="img" font-family="system-ui, -apple-system, 'Segoe UI', Roboto, 'Helvetica Neue', Arial, sans-serif"><title>grooph builds grooph: the push to Monday</title><rect x="0" y="0" width="900" height="1746" style="fill:#111514"/><text x="12" y="35" font-size="17" font-weight="700" style="fill:#ebefed">grooph builds grooph: the push to Monday</text><text x="12" y="52" font-size="11" style="fill:#99a19e">as of 2026-10-04 · 3 lanes · 9 sessions (10 counting families) · 1 person · 19 handoffs, 9 waiting on a person</text><g data-people=""><rect x="12" y="64" width="876" height="86" rx="12" stroke-width="1" stroke-dasharray="5 4" style="fill:#242a27;stroke:#2d3331"/><text x="22" y="84" font-size="12.5" font-weight="700" style="fill:#ebefed">Person</text></g><g data-lane="mac"><rect x="104" y="192" width="184" height="1007" rx="12" stroke-width="1" style="fill:#242a27;stroke:#2d3331"/><text x="114" y="212" font-size="12.5" font-weight="700" style="fill:#ebefed">Ryan's Mac, this</text><rect x="243.8" y="201.2" width="36.2" height="14.7" rx="7.4" stroke-width="1" style="fill:#1b201e;stroke:#4a524f"/><text x="261.9" y="211.5" font-size="9.5" font-weight="700" text-anchor="middle" style="fill:#c0c7c4">local</text><text x="114" y="227" font-size="12.5" font-weight="700" style="fill:#ebefed">account</text><text x="114" y="240.5" font-size="10.5" style="fill:#99a19e">the Mac · the account signed</text><text x="114" y="254" font-size="10.5" style="fill:#99a19e">in on the Mac</text></g><g data-lane="codex"><rect x="436" y="192" width="184" height="1007" rx="12" stroke-width="1" style="fill:#242a27;stroke:#2d3331"/><text x="446" y="212" font-size="12.5" font-weight="700" style="fill:#ebefed">Codex on the</text><rect x="575.8" y="201.2" width="36.2" height="14.7" rx="7.4" stroke-width="1" style="fill:#1b201e;stroke:#4a524f"/><text x="593.9" y="211.5" font-size="9.5" font-weight="700" text-anchor="middle" style="fill:#c0c7c4">local</text><text x="446" y="227" font-size="12.5" font-weight="700" style="fill:#ebefed">Mac</text><text x="446" y="240.5" font-size="10.5" style="fill:#99a19e">the Mac · ChatGPT</text><text x="446" y="254" font-size="10.5" style="fill:#99a19e">subscription</text></g><g data-lane="cloud"><rect x="677" y="192" width="184" height="1007" rx="12" stroke-width="1" style="fill:#242a27;stroke:#2d3331"/><text x="687" y="212" font-size="12.5" font-weight="700" style="fill:#ebefed">Cloud, the other</text><rect x="812.9" y="201.2" width="40.1" height="14.7" rx="7.4" stroke-width="1" style="fill:#1b201e;stroke:#4a524f"/><text x="833" y="211.5" font-size="9.5" font-weight="700" text-anchor="middle" style="fill:#c0c7c4">cloud</text><text x="687" y="227" font-size="12.5" font-weight="700" style="fill:#ebefed">account</text><text x="687" y="240.5" font-size="10.5" style="fill:#99a19e">cloud · Ryan's other Claude</text><text x="687" y="254" font-size="10.5" style="fill:#99a19e">account</text></g><g data-person="ryan"><rect data-card="" x="20" y="93.5" width="860" height="48.5" rx="14" stroke-width="1.4" style="fill:#362a15;stroke:#eb9a45"/><text x="30" y="114.5" font-size="13.5" font-weight="700" style="fill:#ebefed">Ryan</text><text x="30" y="130" font-size="11" style="fill:#c0c7c4">Owner. Says yes or no at each gate, from his phone. Pastes the lane briefs. Says save point.</text></g><g data-session="driver"><rect data-card="" x="112" y="263.5" width="168" height="170" rx="9" stroke-width="1" style="fill:#1b201e;stroke:#4a524f"/><text x="122" y="284.5" font-size="13.5" font-weight="700" style="fill:#ebefed">Driver</text><text x="122" y="298.5" font-size="10.5" font-weight="700" style="fill:#5dbb94">Claude Code</text><text x="122" y="311.5" font-size="10.5" font-weight="700" style="fill:#5dbb94">claude-opus-5-5</text><text x="122" y="327" font-size="11" style="fill:#c0c7c4">Writes each lane's brief,</text><text x="122" y="340.5" font-size="11" style="fill:#c0c7c4">reviews each handback,</text><text x="122" y="354" font-size="11" style="fill:#c0c7c4">merges on Ryan's word,</text><text x="122" y="367.5" font-size="11" style="fill:#c0c7c4">keeps the plan and</text><text x="122" y="381" font-size="11" style="fill:#c0c7c4">progress current,</text><text x="122" y="394.5" font-size="11" style="fill:#c0c7c4">publishes the gate pages</text><text x="122" y="408.5" font-size="10" style="fill:#99a19e">long-lived ·</text><text x="122" y="421.5" font-size="10" style="fill:#99a19e">ryanjosephkamp/grooph</text></g><g data-session="front-door"><rect data-card="" x="112" y="441.5" width="168" height="116" rx="9" stroke-width="1" style="fill:#1b201e;stroke:#4a524f"/><text x="122" y="462.5" font-size="13.5" font-weight="700" style="fill:#ebefed">Lane 1: front door</text><text x="122" y="476.5" font-size="10.5" font-weight="700" style="fill:#5dbb94">Claude Code</text><text x="122" y="489.5" font-size="10.5" font-weight="700" style="fill:#5dbb94">claude-opus-5-5</text><text x="122" y="505" font-size="11" style="fill:#c0c7c4">Landing page, README,</text><text x="122" y="518.5" font-size="11" style="fill:#c0c7c4">desktop layout</text><text x="122" y="532.5" font-size="10" style="fill:#99a19e">per task ·</text><text x="122" y="545.5" font-size="10" style="fill:#99a19e">ryanjosephkamp/grooph</text></g><g data-session="embed"><rect data-card="" x="112" y="565.5" width="168" height="145.5" rx="9" stroke-width="1" style="fill:#1b201e;stroke:#4a524f"/><text x="122" y="586.5" font-size="13.5" font-weight="700" style="fill:#ebefed">Lane 2: embed</text><text x="122" y="602.5" font-size="13.5" font-weight="700" style="fill:#ebefed">and replay</text><text x="122" y="616.5" font-size="10.5" font-weight="700" style="fill:#5dbb94">Claude Code</text><text x="122" y="629.5" font-size="10.5" font-weight="700" style="fill:#5dbb94">claude-opus-5-5</text><text x="122" y="645" font-size="11" style="fill:#c0c7c4">A graph anyone can</text><text x="122" y="658.5" font-size="11" style="fill:#c0c7c4">embed in a page, and a</text><text x="122" y="672" font-size="11" style="fill:#c0c7c4">recorded run that plays</text><text x="122" y="686" font-size="10" style="fill:#99a19e">per task ·</text><text x="122" y="699" font-size="10" style="fill:#99a19e">ryanjosephkamp/grooph</text></g><g data-session="toolkit"><rect data-card="" x="112" y="719" width="168" height="145.5" rx="9" stroke-width="1" style="fill:#1b201e;stroke:#4a524f"/><text x="122" y="740" font-size="13.5" font-weight="700" style="fill:#ebefed">Lane 3: no-friction</text><text x="122" y="756" font-size="13.5" font-weight="700" style="fill:#ebefed">toolkit</text><text x="122" y="770" font-size="10.5" font-weight="700" style="fill:#5dbb94">Claude Code</text><text x="122" y="783" font-size="10.5" font-weight="700" style="fill:#5dbb94">claude-sonnet-5-5</text><text x="122" y="798.5" font-size="11" style="fill:#c0c7c4">First run, CLI help and</text><text x="122" y="812" font-size="11" style="fill:#c0c7c4">errors, quickstart, rule</text><text x="122" y="825.5" font-size="11" style="fill:#c0c7c4">reference</text><text x="122" y="839.5" font-size="10" style="fill:#99a19e">per task ·</text><text x="122" y="852.5" font-size="10" style="fill:#99a19e">ryanjosephkamp/grooph</text></g><g data-session="evidence"><rect data-card="" x="112" y="872.5" width="168" height="129.5" rx="9" stroke-width="1" style="fill:#1b201e;stroke:#4a524f"/><text x="122" y="893.5" font-size="13.5" font-weight="700" style="fill:#ebefed">Lane 4: evidence</text><text x="122" y="907.5" font-size="10.5" font-weight="700" style="fill:#5dbb94">Claude Code</text><text x="122" y="920.5" font-size="10.5" font-weight="700" style="fill:#5dbb94">claude-opus-5-5</text><text x="122" y="936" font-size="11" style="fill:#c0c7c4">Study two: runs the</text><text x="122" y="949.5" font-size="11" style="fill:#c0c7c4">paired comparison,</text><text x="122" y="963" font-size="11" style="fill:#c0c7c4">unattended</text><text x="122" y="977" font-size="10" style="fill:#99a19e">per task ·</text><text x="122" y="990" font-size="10" style="fill:#99a19e">ryanjosephkamp/grooph</text></g><g data-session="later"><rect x="118" y="1016" width="162" height="173" rx="9" stroke-width="1" style="fill:#1b201e;stroke:#2d3331"/><rect x="115" y="1013" width="165" height="174" rx="9" stroke-width="1" style="fill:#1b201e;stroke:#2d3331"/><rect data-card="" x="112" y="1010" width="168" height="175" rx="9" stroke-width="1" style="fill:#1b201e;stroke:#4a524f"/><text x="122" y="1031" font-size="13.5" font-weight="700" style="fill:#ebefed">Lanes 6 and</text><rect x="240.9" y="1019.2" width="28.6" height="16.3" rx="8.1" style="fill:#1e3a30"/><text x="255.2" y="1030.5" font-size="10.5" font-weight="700" text-anchor="middle" style="fill:#5dbb94">×2</text><text x="122" y="1047" font-size="13.5" font-weight="700" style="fill:#ebefed">7: community,</text><text x="122" y="1063" font-size="13.5" font-weight="700" style="fill:#ebefed">writing</text><text x="122" y="1077" font-size="10.5" font-weight="700" style="fill:#5dbb94">Claude Code</text><text x="122" y="1090" font-size="10.5" font-weight="700" style="fill:#5dbb94">claude-sonnet-5-5</text><text x="122" y="1105.5" font-size="11" style="fill:#c0c7c4">Submissions by pull</text><text x="122" y="1119" font-size="11" style="fill:#c0c7c4">request; the blog draft</text><text x="122" y="1132.5" font-size="11" style="fill:#c0c7c4">and the technical report.</text><text x="122" y="1146" font-size="11" style="fill:#c0c7c4">Start when a slot frees</text><text x="122" y="1160" font-size="10" style="fill:#99a19e">per task ·</text><text x="122" y="1173" font-size="10" style="fill:#99a19e">ryanjosephkamp/grooph</text></g><g data-session="codex-target"><rect data-card="" x="444" y="263.5" width="168" height="146" rx="9" stroke-width="1" style="fill:#1b201e;stroke:#4a524f"/><text x="454" y="284.5" font-size="13.5" font-weight="700" style="fill:#ebefed">Lane 5: Codex</text><text x="454" y="300.5" font-size="13.5" font-weight="700" style="fill:#ebefed">target</text><text x="454" y="314.5" font-size="10.5" font-weight="700" style="fill:#6fa3e0">Codex · gpt-6.1-sol</text><text x="454" y="330" font-size="11" style="fill:#c0c7c4">The Codex compile target</text><text x="454" y="343.5" font-size="11" style="fill:#c0c7c4">and one proving run; an</text><text x="454" y="357" font-size="11" style="fill:#c0c7c4">outside read of each</text><text x="454" y="370.5" font-size="11" style="fill:#c0c7c4">Claude lane's change</text><text x="454" y="384.5" font-size="10" style="fill:#99a19e">per task ·</text><text x="454" y="397.5" font-size="10" style="fill:#99a19e">ryanjosephkamp/grooph</text></g><g data-session="dot"><rect data-card="" x="685" y="263.5" width="168" height="130.5" rx="9" stroke-width="1" style="fill:#1b201e;stroke:#4a524f"/><text x="695" y="284.5" font-size="13.5" font-weight="700" style="fill:#ebefed">The Dot</text><text x="695" y="298.5" font-size="10.5" font-weight="700" style="fill:#5dbb94">Claude Code</text><text x="695" y="314" font-size="11" style="fill:#c0c7c4">Research it does itself:</text><text x="695" y="327.5" font-size="11" style="fill:#c0c7c4">prior art, comparable</text><text x="695" y="341" font-size="11" style="fill:#c0c7c4">tools, design references,</text><text x="695" y="354.5" font-size="11" style="fill:#c0c7c4">the npm name. Never</text><text x="695" y="368" font-size="11" style="fill:#c0c7c4">hands work to Codex</text><text x="695" y="382" font-size="10" style="fill:#99a19e">per task</text></g><g data-session="operator"><rect data-card="" x="685" y="402" width="168" height="143.5" rx="9" stroke-width="1" style="fill:#1b201e;stroke:#4a524f"/><text x="695" y="423" font-size="13.5" font-weight="700" style="fill:#ebefed">Operator</text><text x="695" y="437" font-size="10.5" font-weight="700" style="fill:#5dbb94">Claude Code</text><text x="695" y="450" font-size="10.5" font-weight="700" style="fill:#5dbb94">claude-opus-5-5</text><text x="695" y="465.5" font-size="11" style="fill:#c0c7c4">Runs the other project's</text><text x="695" y="479" font-size="11" style="fill:#c0c7c4">lanes, which publish their</text><text x="695" y="492.5" font-size="11" style="fill:#c0c7c4">events. Asked only for</text><text x="695" y="506" font-size="11" style="fill:#c0c7c4">what the events do not</text><text x="695" y="519.5" font-size="11" style="fill:#c0c7c4">show</text><text x="695" y="533.5" font-size="10" style="fill:#99a19e">long-lived</text></g><g data-plate="h-plan"><circle cx="95" cy="243.3" r="7.2" stroke-width="1.3" style="fill:#111514;stroke:#ee6fa6"/></g><g data-plate="h-yes"><circle cx="82" cy="265.8" r="7.2" stroke-width="1.3" style="fill:#111514;stroke:#c0c7c4"/></g><g data-plate="h-brief"><circle cx="69" cy="322" r="7.2" stroke-width="1.3" style="fill:#111514;stroke:#eb9a45"/></g><g data-plate="h-brief-2"><circle cx="56" cy="391.4" r="7.2" stroke-width="1.3" style="fill:#111514;stroke:#eb9a45"/></g><g data-plate="h-brief-3"><circle cx="43" cy="468.1" r="7.2" stroke-width="1.3" style="fill:#111514;stroke:#eb9a45"/></g><g data-plate="h-brief-4"><circle cx="30" cy="540.9" r="7.2" stroke-width="1.3" style="fill:#111514;stroke:#eb9a45"/></g><g data-plate="h-brief-5"><circle cx="629" cy="238" r="7.2" stroke-width="1.3" style="fill:#111514;stroke:#eb9a45"/></g><g data-plate="h-handoff"><circle cx="336" cy="450.8" r="7.2" stroke-width="1.3" style="fill:#111514;stroke:#5dbb94"/></g><g data-plate="h-pr-1"><circle cx="349" cy="474.8" r="7.2" stroke-width="1.3" style="fill:#111514;stroke:#6fa3e0"/></g><g data-plate="h-pr-2"><rect x="353.5" y="503.2" width="16.9" height="14.4" rx="7.2" stroke-width="1.3" style="fill:#111514;stroke:#6fa3e0"/></g><g data-plate="h-pr-3"><rect x="366.5" y="573.4" width="16.9" height="14.4" rx="7.2" stroke-width="1.3" style="fill:#111514;stroke:#6fa3e0"/></g><g data-plate="h-pr-4"><rect x="379.5" y="639.7" width="16.9" height="14.4" rx="7.2" stroke-width="1.3" style="fill:#111514;stroke:#6fa3e0"/></g><g data-plate="h-later"><rect x="392.5" y="710.1" width="16.9" height="14.4" rx="7.2" stroke-width="1.3" style="fill:#111514;stroke:#5dbb94"/></g><g data-plate="h-later-back"><rect x="405.5" y="734.1" width="16.9" height="14.4" rx="7.2" stroke-width="1.3" style="fill:#111514;stroke:#6fa3e0"/></g><g data-plate="h-dot"><rect x="861.5" y="226.9" width="16.9" height="14.4" rx="7.2" stroke-width="1.3" style="fill:#111514;stroke:#eb9a45"/></g><g data-plate="h-dot-back"><rect x="659.5" y="238.4" width="16.9" height="14.4" rx="7.2" stroke-width="1.3" style="fill:#111514;stroke:#eb9a45"/></g><g data-plate="h-events"><rect x="646.5" y="313.2" width="16.9" height="14.4" rx="7.2" stroke-width="1.3" style="fill:#111514;stroke:#5dbb94"/></g><g data-plate="h-ask"><rect x="633.5" y="337.2" width="16.9" height="14.4" rx="7.2" stroke-width="1.3" style="fill:#111514;stroke:#eb9a45"/></g><g data-handoff="h-plan"><path d="M112,344.5 L101,344.5 Q95,344.5 95,338.5 L95,250.5 M95,236.1 L95,147.5" fill="none" stroke-width="1.4" stroke-linecap="round" stroke-dasharray="7 3 1.5 3" style="stroke:#ee6fa6"/><circle cx="112" cy="344.5" r="2.2" style="fill:#ee6fa6"/><path d="M95,142.5 L98.6,149 L91.4,149 z" style="fill:#ee6fa6"/></g><g data-handoff="h-yes"><path d="M82,142 L82,258.6 M82,273 L82,351.5 Q82,357.5 88,357.5 L106.5,357.5" fill="none" stroke-width="1.4" stroke-linecap="round" stroke-dasharray="5 3" style="stroke:#c0c7c4"/><circle cx="82" cy="142" r="2.2" style="fill:#c0c7c4"/><path d="M111.5,357.5 L105,353.9 L105,361.1 z" style="fill:#c0c7c4"/></g><g data-handoff="h-brief"><path d="M69,142 L69,314.8 M69,329.2 L69,496 Q69,502 75,502 L106.5,502" fill="none" stroke-width="2.4" stroke-linecap="round" style="stroke:#eb9a45"/><circle cx="69" cy="142" r="2.2" style="fill:#eb9a45"/><path d="M111.5,502 L105,498.4 L105,505.6 z" style="fill:#eb9a45"/></g><g data-handoff="h-brief-2"><path d="M56,142 L56,384.2 M56,398.6 L56,634.8 Q56,640.8 62,640.8 L106.5,640.8" fill="none" stroke-width="2.4" stroke-linecap="round" style="stroke:#eb9a45"/><circle cx="56" cy="142" r="2.2" style="fill:#eb9a45"/><path d="M111.5,640.8 L105,637.2 L105,644.4 z" style="fill:#eb9a45"/></g><g data-handoff="h-brief-3"><path d="M43,142 L43,460.9 M43,475.3 L43,788.3 Q43,794.3 49,794.3 L106.5,794.3" fill="none" stroke-width="2.4" stroke-linecap="round" style="stroke:#eb9a45"/><circle cx="43" cy="142" r="2.2" style="fill:#eb9a45"/><path d="M111.5,794.3 L105,790.7 L105,797.9 z" style="fill:#eb9a45"/></g><g data-handoff="h-brief-4"><path d="M30,142 L30,533.7 M30,548.1 L30,933.8 Q30,939.8 36,939.8 L106.5,939.8" fill="none" stroke-width="2.4" stroke-linecap="round" style="stroke:#eb9a45"/><circle cx="30" cy="142" r="2.2" style="fill:#eb9a45"/><path d="M111.5,939.8 L105,936.2 L105,943.4 z" style="fill:#eb9a45"/></g><g data-handoff="h-brief-5"><path d="M629,142 L629,230.8 M629,245.2 L629,328 Q629,334 623,334 L617.5,334" fill="none" stroke-width="2.4" stroke-linecap="round" style="stroke:#eb9a45"/><circle cx="629" cy="142" r="2.2" style="fill:#eb9a45"/><path d="M612.5,334 L619,337.6 L619,330.4 z" style="fill:#eb9a45"/></g><g data-handoff="h-handoff"><path d="M280,411 L330,411 Q336,411 336,417 L336,443.6 M336,458 L336,484.5 Q336,490.5 330,490.5 L285.5,490.5" fill="none" stroke-width="1.6" stroke-linecap="round" style="stroke:#5dbb94"/><circle cx="280" cy="411" r="2.2" style="fill:#5dbb94"/><path d="M280.5,490.5 L287,494.1 L287,486.9 z" style="fill:#5dbb94"/></g><g data-handoff="h-pr-1"><path d="M280,503.5 L343,503.5 Q349,503.5 349,497.5 L349,482 M349,467.6 L349,404 Q349,398 343,398 L285.5,398" fill="none" stroke-width="1.6" stroke-linecap="round" style="stroke:#6fa3e0"/><circle cx="280" cy="503.5" r="2.2" style="fill:#6fa3e0"/><path d="M280.5,398 L287,401.6 L287,394.4 z" style="fill:#6fa3e0"/></g><g data-handoff="h-pr-2"><path d="M280,635.8 L356,635.8 Q362,635.8 362,629.8 L362,517.6 M362,503.2 L362,391 Q362,385 356,385 L285.5,385" fill="none" stroke-width="1.6" stroke-linecap="round" style="stroke:#6fa3e0"/><circle cx="280" cy="635.8" r="2.2" style="fill:#6fa3e0"/><path d="M280.5,385 L287,388.6 L287,381.4 z" style="fill:#6fa3e0"/></g><g data-handoff="h-pr-3"><path d="M280,789.3 L369,789.3 Q375,789.3 375,783.3 L375,587.8 M375,573.4 L375,378 Q375,372 369,372 L285.5,372" fill="none" stroke-width="1.6" stroke-linecap="round" style="stroke:#6fa3e0"/><circle cx="280" cy="789.3" r="2.2" style="fill:#6fa3e0"/><path d="M280.5,372 L287,375.6 L287,368.4 z" style="fill:#6fa3e0"/></g><g data-handoff="h-pr-4"><path d="M280,934.8 L382,934.8 Q388,934.8 388,928.8 L388,654.1 M388,639.7 L388,365 Q388,359 382,359 L285.5,359" fill="none" stroke-width="1.6" stroke-linecap="round" style="stroke:#6fa3e0"/><circle cx="280" cy="934.8" r="2.2" style="fill:#6fa3e0"/><path d="M280.5,359 L287,362.6 L287,355.4 z" style="fill:#6fa3e0"/></g><g data-handoff="h-pr-5"><path d="M444,339 L433,339 Q427,339 427,333 L427,326 Q427,320 421,320 L285.5,320" fill="none" stroke-width="1.6" stroke-linecap="round" style="stroke:#5dbb94"/><circle cx="444" cy="339" r="2.2" style="fill:#5dbb94"/><path d="M280.5,320 L287,323.6 L287,316.4 z" style="fill:#5dbb94"/></g><g data-plate="h-pr-5"><rect x="345" y="312.8" width="16.9" height="14.4" rx="7.2" stroke-width="1.3" style="fill:#111514;stroke:#5dbb94"/></g><g data-handoff="h-later"><path d="M280,346 L395,346 Q401,346 401,352 L401,710.1 M401,724.5 L401,1082.5 Q401,1088.5 395,1088.5 L285.5,1088.5" fill="none" stroke-width="1.6" stroke-linecap="round" style="stroke:#5dbb94"/><circle cx="280" cy="346" r="2.2" style="fill:#5dbb94"/><path d="M280.5,1088.5 L287,1092.1 L287,1084.9 z" style="fill:#5dbb94"/></g><g data-handoff="h-later-back"><path d="M280,1101.5 L408,1101.5 Q414,1101.5 414,1095.5 L414,748.5 M414,734.1 L414,339 Q414,333 408,333 L285.5,333" fill="none" stroke-width="1.6" stroke-linecap="round" style="stroke:#6fa3e0"/><circle cx="280" cy="1101.5" r="2.2" style="fill:#6fa3e0"/><path d="M280.5,333 L287,336.6 L287,329.4 z" style="fill:#6fa3e0"/></g><g data-handoff="h-dot"><path d="M870,142 L870,226.9 M870,241.3 L870,320.3 Q870,326.3 864,326.3 L858.5,326.3" fill="none" stroke-width="2.4" stroke-linecap="round" style="stroke:#eb9a45"/><circle cx="870" cy="142" r="2.2" style="fill:#eb9a45"/><path d="M853.5,326.3 L860,329.9 L860,322.7 z" style="fill:#eb9a45"/></g><g data-handoff="h-dot-back"><path d="M685,331.3 L674,331.3 Q668,331.3 668,325.3 L668,252.8 M668,238.4 L668,166 Q668,160 662,160 L303,160 Q297,160 297,166 L297,275 Q297,281 291,281 L285.5,281" fill="none" stroke-width="2.4" stroke-linecap="round" style="stroke:#eb9a45"/><circle cx="685" cy="331.3" r="2.2" style="fill:#eb9a45"/><path d="M280.5,281 L287,284.6 L287,277.4 z" style="fill:#eb9a45"/></g><g data-handoff="h-events"><path d="M685,469.8 L661,469.8 Q655,469.8 655,463.8 L655,327.6 M655,313.2 L655,177 Q655,171 649,171 L316,171 Q310,171 310,177 L310,288 Q310,294 304,294 L285.5,294" fill="none" stroke-width="1.6" stroke-linecap="round" style="stroke:#5dbb94"/><circle cx="685" cy="469.8" r="2.2" style="fill:#5dbb94"/><path d="M280.5,294 L287,297.6 L287,290.4 z" style="fill:#5dbb94"/></g><g data-handoff="h-ask"><path d="M280,307 L317,307 Q323,307 323,301 L323,188 Q323,182 329,182 L636,182 Q642,182 642,188 L642,337.2 M642,351.6 L642,476.8 Q642,482.8 648,482.8 L679.5,482.8" fill="none" stroke-width="2.4" stroke-linecap="round" style="stroke:#eb9a45"/><circle cx="280" cy="307" r="2.2" style="fill:#eb9a45"/><path d="M684.5,482.8 L678,479.2 L678,486.4 z" style="fill:#eb9a45"/></g><g data-number="h-plan"><text x="95" y="246.6" font-size="9.5" font-weight="700" text-anchor="middle" style="fill:#ebefed">1</text></g><g data-number="h-yes"><text x="82" y="269.1" font-size="9.5" font-weight="700" text-anchor="middle" style="fill:#ebefed">2</text></g><g data-number="h-brief"><text x="69" y="325.3" font-size="9.5" font-weight="700" text-anchor="middle" style="fill:#ebefed">3</text></g><g data-number="h-brief-2"><text x="56" y="394.7" font-size="9.5" font-weight="700" text-anchor="middle" style="fill:#ebefed">4</text></g><g data-number="h-brief-3"><text x="43" y="471.4" font-size="9.5" font-weight="700" text-anchor="middle" style="fill:#ebefed">5</text></g><g data-number="h-brief-4"><text x="30" y="544.2" font-size="9.5" font-weight="700" text-anchor="middle" style="fill:#ebefed">6</text></g><g data-number="h-brief-5"><text x="629" y="241.3" font-size="9.5" font-weight="700" text-anchor="middle" style="fill:#ebefed">7</text></g><g data-number="h-handoff"><text x="336" y="454.1" font-size="9.5" font-weight="700" text-anchor="middle" style="fill:#ebefed">8</text></g><g data-number="h-pr-1"><text x="349" y="478.1" font-size="9.5" font-weight="700" text-anchor="middle" style="fill:#ebefed">9</text></g><g data-number="h-pr-2"><text x="362" y="513.7" font-size="8.5" font-weight="700" text-anchor="middle" style="fill:#ebefed">10</text></g><g data-number="h-pr-3"><text x="375" y="583.9" font-size="8.5" font-weight="700" text-anchor="middle" style="fill:#ebefed">11</text></g><g data-number="h-pr-4"><text x="388" y="650.2" font-size="8.5" font-weight="700" text-anchor="middle" style="fill:#ebefed">12</text></g><g data-number="h-pr-5"><text x="353.5" y="323.3" font-size="8.5" font-weight="700" text-anchor="middle" style="fill:#ebefed">13</text></g><g data-number="h-later"><text x="401" y="720.6" font-size="8.5" font-weight="700" text-anchor="middle" style="fill:#ebefed">14</text></g><g data-number="h-later-back"><text x="414" y="744.6" font-size="8.5" font-weight="700" text-anchor="middle" style="fill:#ebefed">15</text></g><g data-number="h-dot"><text x="870" y="237.4" font-size="8.5" font-weight="700" text-anchor="middle" style="fill:#ebefed">16</text></g><g data-number="h-dot-back"><text x="668" y="248.9" font-size="8.5" font-weight="700" text-anchor="middle" style="fill:#ebefed">17</text></g><g data-number="h-events"><text x="655" y="323.7" font-size="8.5" font-weight="700" text-anchor="middle" style="fill:#ebefed">18</text></g><g data-number="h-ask"><text x="642" y="347.7" font-size="8.5" font-weight="700" text-anchor="middle" style="fill:#ebefed">19</text></g><text x="12" y="1226" font-size="12.5" font-weight="700" style="fill:#ebefed">Handoffs</text><g data-handoff-row="h-plan"><rect data-row="" x="8" y="1233" width="438" height="47.5" rx="8" style="fill:transparent"/><circle cx="20" cy="1243" r="7.2" stroke-width="1.3" style="fill:#111514;stroke:#ee6fa6"/><text x="20" y="1246.3" font-size="9.5" font-weight="700" text-anchor="middle" style="fill:#ebefed">1</text><text x="36" y="1247" font-size="12" font-weight="700" style="fill:#ebefed">Driver → Ryan</text><path d="M36,1257.5 h18" fill="none" stroke-width="1.4" stroke-linecap="round" stroke-dasharray="7 3 1.5 3" style="stroke:#ee6fa6"/><text x="60" y="1261" font-size="11" font-weight="700" style="fill:#ee6fa6">review page: gate pages</text><text x="36" y="1274.5" font-size="11" style="fill:#c0c7c4">the plan, then each gate: what was done, what needs only a yes</text></g><g data-handoff-row="h-yes"><rect data-row="" x="8" y="1283.5" width="438" height="47.5" rx="8" style="fill:transparent"/><circle cx="20" cy="1293.5" r="7.2" stroke-width="1.3" style="fill:#111514;stroke:#c0c7c4"/><text x="20" y="1296.8" font-size="9.5" font-weight="700" text-anchor="middle" style="fill:#ebefed">2</text><text x="36" y="1297.5" font-size="12" font-weight="700" style="fill:#ebefed">Ryan → Driver</text><path d="M36,1308 h18" fill="none" stroke-width="1.4" stroke-linecap="round" stroke-dasharray="5 3" style="stroke:#c0c7c4"/><text x="60" y="1311.5" font-size="11" font-weight="700" style="fill:#c0c7c4">session message</text><text x="36" y="1325" font-size="11" style="fill:#c0c7c4">approved, or save point</text></g><g data-handoff-row="h-brief"><rect data-row="" x="8" y="1334" width="438" height="47.5" rx="8" style="fill:transparent"/><circle cx="20" cy="1344" r="7.2" stroke-width="1.3" style="fill:#111514;stroke:#eb9a45"/><text x="20" y="1347.3" font-size="9.5" font-weight="700" text-anchor="middle" style="fill:#ebefed">3</text><text x="36" y="1348" font-size="12" font-weight="700" style="fill:#ebefed">Ryan → Lane 1: front door</text><path d="M36,1358.5 h18" fill="none" stroke-width="2.4" stroke-linecap="round" style="stroke:#eb9a45"/><text x="60" y="1362" font-size="11" font-weight="700" style="fill:#eb9a45">carried by Ryan</text><text x="36" y="1375.5" font-size="11" style="fill:#c0c7c4">the paste line that starts a lane, in a new Terminal tab</text></g><g data-handoff-row="h-brief-2"><rect data-row="" x="8" y="1384.5" width="438" height="47.5" rx="8" style="fill:transparent"/><circle cx="20" cy="1394.5" r="7.2" stroke-width="1.3" style="fill:#111514;stroke:#eb9a45"/><text x="20" y="1397.8" font-size="9.5" font-weight="700" text-anchor="middle" style="fill:#ebefed">4</text><text x="36" y="1398.5" font-size="12" font-weight="700" style="fill:#ebefed">Ryan → Lane 2: embed and replay</text><path d="M36,1409 h18" fill="none" stroke-width="2.4" stroke-linecap="round" style="stroke:#eb9a45"/><text x="60" y="1412.5" font-size="11" font-weight="700" style="fill:#eb9a45">carried by Ryan</text><text x="36" y="1426" font-size="11" style="fill:#c0c7c4">the paste line</text></g><g data-handoff-row="h-brief-3"><rect data-row="" x="8" y="1435" width="438" height="47.5" rx="8" style="fill:transparent"/><circle cx="20" cy="1445" r="7.2" stroke-width="1.3" style="fill:#111514;stroke:#eb9a45"/><text x="20" y="1448.3" font-size="9.5" font-weight="700" text-anchor="middle" style="fill:#ebefed">5</text><text x="36" y="1449" font-size="12" font-weight="700" style="fill:#ebefed">Ryan → Lane 3: no-friction toolkit</text><path d="M36,1459.5 h18" fill="none" stroke-width="2.4" stroke-linecap="round" style="stroke:#eb9a45"/><text x="60" y="1463" font-size="11" font-weight="700" style="fill:#eb9a45">carried by Ryan</text><text x="36" y="1476.5" font-size="11" style="fill:#c0c7c4">the paste line</text></g><g data-handoff-row="h-brief-4"><rect data-row="" x="8" y="1485.5" width="438" height="47.5" rx="8" style="fill:transparent"/><circle cx="20" cy="1495.5" r="7.2" stroke-width="1.3" style="fill:#111514;stroke:#eb9a45"/><text x="20" y="1498.8" font-size="9.5" font-weight="700" text-anchor="middle" style="fill:#ebefed">6</text><text x="36" y="1499.5" font-size="12" font-weight="700" style="fill:#ebefed">Ryan → Lane 4: evidence</text><path d="M36,1510 h18" fill="none" stroke-width="2.4" stroke-linecap="round" style="stroke:#eb9a45"/><text x="60" y="1513.5" font-size="11" font-weight="700" style="fill:#eb9a45">carried by Ryan</text><text x="36" y="1527" font-size="11" style="fill:#c0c7c4">the paste line, once he says go to study two</text></g><g data-handoff-row="h-brief-5"><rect data-row="" x="8" y="1536" width="438" height="47.5" rx="8" style="fill:transparent"/><circle cx="20" cy="1546" r="7.2" stroke-width="1.3" style="fill:#111514;stroke:#eb9a45"/><text x="20" y="1549.3" font-size="9.5" font-weight="700" text-anchor="middle" style="fill:#ebefed">7</text><text x="36" y="1550" font-size="12" font-weight="700" style="fill:#ebefed">Ryan → Lane 5: Codex target</text><path d="M36,1560.5 h18" fill="none" stroke-width="2.4" stroke-linecap="round" style="stroke:#eb9a45"/><text x="60" y="1564" font-size="11" font-weight="700" style="fill:#eb9a45">carried by Ryan</text><text x="36" y="1577.5" font-size="11" style="fill:#c0c7c4">the prompt, in the Codex app</text></g><g data-handoff-row="h-handoff"><rect data-row="" x="8" y="1586.5" width="438" height="47.5" rx="8" style="fill:transparent"/><circle cx="20" cy="1596.5" r="7.2" stroke-width="1.3" style="fill:#111514;stroke:#5dbb94"/><text x="20" y="1599.8" font-size="9.5" font-weight="700" text-anchor="middle" style="fill:#ebefed">8</text><text x="36" y="1600.5" font-size="12" font-weight="700" style="fill:#ebefed">Driver → Lane 1: front door</text><path d="M36,1611 h18" fill="none" stroke-width="1.6" stroke-linecap="round" style="stroke:#5dbb94"/><text x="60" y="1614.5" font-size="11" font-weight="700" style="fill:#5dbb94">branch main on ryanjosephkamp/grooph</text><text x="36" y="1628" font-size="11" style="fill:#c0c7c4">HANDOFF.md for each lane, on main</text></g><g data-handoff-row="h-pr-1"><rect data-row="" x="8" y="1637" width="438" height="47.5" rx="8" style="fill:transparent"/><circle cx="20" cy="1647" r="7.2" stroke-width="1.3" style="fill:#111514;stroke:#6fa3e0"/><text x="20" y="1650.3" font-size="9.5" font-weight="700" text-anchor="middle" style="fill:#ebefed">9</text><text x="36" y="1651" font-size="12" font-weight="700" style="fill:#ebefed">Lane 1: front door → Driver</text><path d="M36,1661.5 h18" fill="none" stroke-width="1.6" stroke-linecap="round" style="stroke:#6fa3e0"/><text x="60" y="1665" font-size="11" font-weight="700" style="fill:#6fa3e0">pull request on ryanjosephkamp/grooph</text><text x="36" y="1678.5" font-size="11" style="fill:#c0c7c4">the lane's work with its HANDBACK.md</text></g><g data-handoff-row="h-pr-2"><rect data-row="" x="8" y="1687.5" width="438" height="47.5" rx="8" style="fill:transparent"/><rect x="11.5" y="1690.3" width="16.9" height="14.4" rx="7.2" stroke-width="1.3" style="fill:#111514;stroke:#6fa3e0"/><text x="20" y="1700.8" font-size="8.5" font-weight="700" text-anchor="middle" style="fill:#ebefed">10</text><text x="36" y="1701.5" font-size="12" font-weight="700" style="fill:#ebefed">Lane 2: embed and replay → Driver</text><path d="M36,1712 h18" fill="none" stroke-width="1.6" stroke-linecap="round" style="stroke:#6fa3e0"/><text x="60" y="1715.5" font-size="11" font-weight="700" style="fill:#6fa3e0">pull request on ryanjosephkamp/grooph</text><text x="36" y="1729" font-size="11" style="fill:#c0c7c4">the lane's work with its HANDBACK.md</text></g><g data-handoff-row="h-pr-3"><rect data-row="" x="454" y="1233" width="438" height="47.5" rx="8" style="fill:transparent"/><rect x="457.5" y="1235.8" width="16.9" height="14.4" rx="7.2" stroke-width="1.3" style="fill:#111514;stroke:#6fa3e0"/><text x="466" y="1246.3" font-size="8.5" font-weight="700" text-anchor="middle" style="fill:#ebefed">11</text><text x="482" y="1247" font-size="12" font-weight="700" style="fill:#ebefed">Lane 3: no-friction toolkit → Driver</text><path d="M482,1257.5 h18" fill="none" stroke-width="1.6" stroke-linecap="round" style="stroke:#6fa3e0"/><text x="506" y="1261" font-size="11" font-weight="700" style="fill:#6fa3e0">pull request on ryanjosephkamp/grooph</text><text x="482" y="1274.5" font-size="11" style="fill:#c0c7c4">the lane's work with its HANDBACK.md</text></g><g data-handoff-row="h-pr-4"><rect data-row="" x="454" y="1283.5" width="438" height="47.5" rx="8" style="fill:transparent"/><rect x="457.5" y="1286.3" width="16.9" height="14.4" rx="7.2" stroke-width="1.3" style="fill:#111514;stroke:#6fa3e0"/><text x="466" y="1296.8" font-size="8.5" font-weight="700" text-anchor="middle" style="fill:#ebefed">12</text><text x="482" y="1297.5" font-size="12" font-weight="700" style="fill:#ebefed">Lane 4: evidence → Driver</text><path d="M482,1308 h18" fill="none" stroke-width="1.6" stroke-linecap="round" style="stroke:#6fa3e0"/><text x="506" y="1311.5" font-size="11" font-weight="700" style="fill:#6fa3e0">pull request on ryanjosephkamp/grooph</text><text x="482" y="1325" font-size="11" style="fill:#c0c7c4">the study's records and write-ups</text></g><g data-handoff-row="h-pr-5"><rect data-row="" x="454" y="1334" width="438" height="47.5" rx="8" style="fill:transparent"/><rect x="457.5" y="1336.8" width="16.9" height="14.4" rx="7.2" stroke-width="1.3" style="fill:#111514;stroke:#5dbb94"/><text x="466" y="1347.3" font-size="8.5" font-weight="700" text-anchor="middle" style="fill:#ebefed">13</text><text x="482" y="1348" font-size="12" font-weight="700" style="fill:#ebefed">Lane 5: Codex target → Driver</text><path d="M482,1358.5 h18" fill="none" stroke-width="1.6" stroke-linecap="round" style="stroke:#5dbb94"/><text x="506" y="1362" font-size="11" font-weight="700" style="fill:#5dbb94">branch on ryanjosephkamp/grooph</text><text x="482" y="1375.5" font-size="11" style="fill:#c0c7c4">the Codex target on a branch, with its HANDBACK.md</text></g><g data-handoff-row="h-later"><rect data-row="" x="454" y="1384.5" width="438" height="47.5" rx="8" style="fill:transparent"/><rect x="457.5" y="1387.3" width="16.9" height="14.4" rx="7.2" stroke-width="1.3" style="fill:#111514;stroke:#5dbb94"/><text x="466" y="1397.8" font-size="8.5" font-weight="700" text-anchor="middle" style="fill:#ebefed">14</text><text x="482" y="1398.5" font-size="12" font-weight="700" style="fill:#ebefed">Driver → Lanes 6 and 7: community, writing</text><path d="M482,1409 h18" fill="none" stroke-width="1.6" stroke-linecap="round" style="stroke:#5dbb94"/><text x="506" y="1412.5" font-size="11" font-weight="700" style="fill:#5dbb94">branch main on ryanjosephkamp/grooph</text><text x="482" y="1426" font-size="11" style="fill:#c0c7c4">their briefs, when a slot frees</text></g><g data-handoff-row="h-later-back"><rect data-row="" x="454" y="1435" width="438" height="47.5" rx="8" style="fill:transparent"/><rect x="457.5" y="1437.8" width="16.9" height="14.4" rx="7.2" stroke-width="1.3" style="fill:#111514;stroke:#6fa3e0"/><text x="466" y="1448.3" font-size="8.5" font-weight="700" text-anchor="middle" style="fill:#ebefed">15</text><text x="482" y="1449" font-size="12" font-weight="700" style="fill:#ebefed">Lanes 6 and 7: community, writing → Driver</text><path d="M482,1459.5 h18" fill="none" stroke-width="1.6" stroke-linecap="round" style="stroke:#6fa3e0"/><text x="506" y="1463" font-size="11" font-weight="700" style="fill:#6fa3e0">pull request on ryanjosephkamp/grooph</text><text x="482" y="1476.5" font-size="11" style="fill:#c0c7c4">their work</text></g><g data-handoff-row="h-dot"><rect data-row="" x="454" y="1485.5" width="438" height="47.5" rx="8" style="fill:transparent"/><rect x="457.5" y="1488.3" width="16.9" height="14.4" rx="7.2" stroke-width="1.3" style="fill:#111514;stroke:#eb9a45"/><text x="466" y="1498.8" font-size="8.5" font-weight="700" text-anchor="middle" style="fill:#ebefed">16</text><text x="482" y="1499.5" font-size="12" font-weight="700" style="fill:#ebefed">Ryan → The Dot</text><path d="M482,1510 h18" fill="none" stroke-width="2.4" stroke-linecap="round" style="stroke:#eb9a45"/><text x="506" y="1513.5" font-size="11" font-weight="700" style="fill:#eb9a45">carried by Ryan</text><text x="482" y="1527" font-size="11" style="fill:#c0c7c4">the research questions</text></g><g data-handoff-row="h-dot-back"><rect data-row="" x="454" y="1536" width="438" height="47.5" rx="8" style="fill:transparent"/><rect x="457.5" y="1538.8" width="16.9" height="14.4" rx="7.2" stroke-width="1.3" style="fill:#111514;stroke:#eb9a45"/><text x="466" y="1549.3" font-size="8.5" font-weight="700" text-anchor="middle" style="fill:#ebefed">17</text><text x="482" y="1550" font-size="12" font-weight="700" style="fill:#ebefed">The Dot → Driver</text><path d="M482,1560.5 h18" fill="none" stroke-width="2.4" stroke-linecap="round" style="stroke:#eb9a45"/><text x="506" y="1564" font-size="11" font-weight="700" style="fill:#eb9a45">carried by Ryan</text><text x="482" y="1577.5" font-size="11" style="fill:#c0c7c4">what it found, as a file Ryan attaches</text></g><g data-handoff-row="h-events"><rect data-row="" x="454" y="1586.5" width="438" height="61" rx="8" style="fill:transparent"/><rect x="457.5" y="1589.3" width="16.9" height="14.4" rx="7.2" stroke-width="1.3" style="fill:#111514;stroke:#5dbb94"/><text x="466" y="1599.8" font-size="8.5" font-weight="700" text-anchor="middle" style="fill:#ebefed">18</text><text x="482" y="1600.5" font-size="12" font-weight="700" style="fill:#ebefed">Operator → Driver</text><path d="M482,1611 h18" fill="none" stroke-width="1.6" stroke-linecap="round" style="stroke:#5dbb94"/><text x="506" y="1614.5" font-size="11" font-weight="700" style="fill:#5dbb94">branch grooph-events/* on the other project's public</text><text x="506" y="1628" font-size="11" font-weight="700" style="fill:#5dbb94">repository</text><text x="482" y="1641.5" font-size="11" style="fill:#c0c7c4">the other project's lanes' events, read with grooph sessions</text></g><g data-handoff-row="h-ask"><rect data-row="" x="454" y="1650.5" width="438" height="47.5" rx="8" style="fill:transparent"/><rect x="457.5" y="1653.3" width="16.9" height="14.4" rx="7.2" stroke-width="1.3" style="fill:#111514;stroke:#eb9a45"/><text x="466" y="1663.8" font-size="8.5" font-weight="700" text-anchor="middle" style="fill:#ebefed">19</text><text x="482" y="1664.5" font-size="12" font-weight="700" style="fill:#ebefed">Driver → Operator</text><path d="M482,1675 h18" fill="none" stroke-width="2.4" stroke-linecap="round" style="stroke:#eb9a45"/><text x="506" y="1678.5" font-size="11" font-weight="700" style="fill:#eb9a45">carried by Ryan</text><text x="482" y="1692" font-size="11" style="fill:#c0c7c4">only what the events do not show</text></g></svg>
