<svg xmlns="http://www.w3.org/2000/svg" class="grooph-picture" data-picture="map" viewBox="0 0 400 2588" width="400" height="2588" role="img" font-family="system-ui, -apple-system, 'Segoe UI', Roboto, 'Helvetica Neue', Arial, sans-serif"><title>Ryan's operation, October 1, 2026</title><rect x="0" y="0" width="400" height="2588" style="fill:#f1f4f3"/><text x="12" y="35" font-size="17" font-weight="700" style="fill:#1a201e">Ryan's operation, October 1, 2026</text><text x="12" y="52" font-size="11" style="fill:#5f6764">as of 2026-10-01 · 3 lanes · 8 sessions (21 counting families) ·</text><text x="12" y="65" font-size="11" style="fill:#5f6764">18 handoffs, 3 carried by a person</text><g data-lane="cloud-b"><rect x="12" y="77" width="376" height="1042.5" rx="12" stroke-width="1" style="fill:#e8edeb;stroke:#dce1df"/><text x="22" y="97" font-size="12.5" font-weight="700" style="fill:#1a201e">Cloud, account B</text><rect x="181.5" y="86.2" width="40.1" height="14.7" rx="7.4" stroke-width="1" style="fill:#fdfefe;stroke:#b9c1be"/><text x="201.6" y="96.5" font-size="9.5" font-weight="700" text-anchor="middle" style="fill:#454c49">cloud</text><text x="22" y="110.5" font-size="10.5" style="fill:#5f6764">Claude Code cloud sandboxes (one</text><text x="22" y="124" font-size="10.5" style="fill:#5f6764">environment) · Claude account B</text></g><g data-lane="mac-a"><rect x="12" y="1129.5" width="376" height="167.5" rx="12" stroke-width="1" style="fill:#e8edeb;stroke:#dce1df"/><text x="22" y="1149.5" font-size="12.5" font-weight="700" style="fill:#1a201e">Mac, account A</text><rect x="185.4" y="1138.7" width="36.2" height="14.7" rx="7.4" stroke-width="1" style="fill:#fdfefe;stroke:#b9c1be"/><text x="203.5" y="1149" font-size="9.5" font-weight="700" text-anchor="middle" style="fill:#454c49">local</text><text x="22" y="1163" font-size="10.5" style="fill:#5f6764">Ryan's Mac · Claude account A</text></g><g data-lane="mac-openai"><rect x="12" y="1307" width="376" height="154.5" rx="12" stroke-width="1" style="fill:#e8edeb;stroke:#dce1df"/><text x="22" y="1327" font-size="12.5" font-weight="700" style="fill:#1a201e">Mac, OpenAI</text><rect x="185.4" y="1316.2" width="36.2" height="14.7" rx="7.4" stroke-width="1" style="fill:#fdfefe;stroke:#b9c1be"/><text x="203.5" y="1326.5" font-size="9.5" font-weight="700" text-anchor="middle" style="fill:#454c49">local</text><text x="22" y="1340.5" font-size="10.5" style="fill:#5f6764">Ryan's Mac · OpenAI account</text></g><g data-session="operator"><rect data-card="" x="20" y="133.5" width="201.6" height="238" rx="9" stroke-width="1" style="fill:#fdfefe;stroke:#b9c1be"/><text x="30" y="154.5" font-size="13.5" font-weight="700" style="fill:#1a201e">Operator</text><text x="30" y="168.5" font-size="10.5" font-weight="700" style="fill:#1f5f4a">Claude Code</text><text x="30" y="181.5" font-size="10.5" font-weight="700" style="fill:#1f5f4a">claude-opus-5-5</text><text x="30" y="197" font-size="11" style="fill:#454c49">Plans; starts, steers and</text><text x="30" y="210.5" font-size="11" style="fill:#454c49">checks every session on</text><text x="30" y="224" font-size="11" style="fill:#454c49">account B; merges; keeps the</text><text x="30" y="237.5" font-size="11" style="fill:#454c49">review pages. Extra-high</text><text x="30" y="251" font-size="11" style="fill:#454c49">effort. Leads the research</text><text x="30" y="264.5" font-size="11" style="fill:#454c49">project too</text><text x="30" y="278.5" font-size="10" style="fill:#5f6764">long-lived · 4 repositories:</text><text x="30" y="291.5" font-size="10" style="fill:#5f6764">Splashery's, the research project's</text><text x="30" y="304.5" font-size="10" style="fill:#5f6764">and two of Ryan's sites</text><circle data-wakes="" cx="34.2" cy="316.1" r="3.6" fill="none" stroke-width="1.8" stroke-dasharray="1.5 2.2" style="stroke:#6b4fa0"/><text x="43" y="319.5" font-size="10" font-weight="700" style="fill:#6b4fa0">wakes itself · every 30-45</text><text x="43" y="332.5" font-size="10" font-weight="700" style="fill:#6b4fa0">min</text></g><g data-session="splashery-lanes"><rect x="26" y="385.5" width="195.6" height="128" rx="9" stroke-width="1" style="fill:#fdfefe;stroke:#dce1df"/><rect x="23" y="382.5" width="198.6" height="129" rx="9" stroke-width="1" style="fill:#fdfefe;stroke:#dce1df"/><rect data-card="" x="20" y="379.5" width="201.6" height="130" rx="9" stroke-width="1" style="fill:#fdfefe;stroke:#b9c1be"/><text x="30" y="400.5" font-size="13.5" font-weight="700" style="fill:#1a201e">Splashery lanes</text><rect x="174.8" y="388.7" width="36.3" height="16.3" rx="8.1" style="fill:#dcefe6"/><text x="193" y="400" font-size="10.5" font-weight="700" text-anchor="middle" style="fill:#1f5f4a">×10</text><text x="30" y="414.5" font-size="10.5" font-weight="700" style="fill:#1f5f4a">Claude Code</text><text x="30" y="427.5" font-size="10.5" font-weight="700" style="fill:#1f5f4a">claude-opus-5-5</text><text x="30" y="443" font-size="11" style="fill:#454c49">Each builds one piece of</text><text x="30" y="456.5" font-size="11" style="fill:#454c49">Splashery on its own branch.</text><text x="30" y="470" font-size="11" style="fill:#454c49">Opus 5.5 now; Sonnet 5.5 for</text><text x="30" y="483.5" font-size="11" style="fill:#454c49">lighter work (none running)</text><text x="30" y="497.5" font-size="10" style="fill:#5f6764">per task · splashery</text></g><g data-session="integrators"><rect x="26" y="529.5" width="195.6" height="128" rx="9" stroke-width="1" style="fill:#fdfefe;stroke:#dce1df"/><rect x="23" y="526.5" width="198.6" height="129" rx="9" stroke-width="1" style="fill:#fdfefe;stroke:#dce1df"/><rect data-card="" x="20" y="523.5" width="201.6" height="130" rx="9" stroke-width="1" style="fill:#fdfefe;stroke:#b9c1be"/><text x="30" y="544.5" font-size="13.5" font-weight="700" style="fill:#1a201e">Integrators</text><rect x="182.5" y="532.7" width="28.6" height="16.3" rx="8.1" style="fill:#dcefe6"/><text x="196.8" y="544" font-size="10.5" font-weight="700" text-anchor="middle" style="fill:#1f5f4a">×2</text><text x="30" y="558.5" font-size="10.5" font-weight="700" style="fill:#1f5f4a">Claude Code</text><text x="30" y="571.5" font-size="10.5" font-weight="700" style="fill:#1f5f4a">claude-sonnet-5-5</text><text x="30" y="587" font-size="11" style="fill:#454c49">Run the full test suite on main</text><text x="30" y="600.5" font-size="11" style="fill:#454c49">plus the PRs named, and</text><text x="30" y="614" font-size="11" style="fill:#454c49">report each failure with its</text><text x="30" y="627.5" font-size="11" style="fill:#454c49">owner</text><text x="30" y="641.5" font-size="10" style="fill:#5f6764">long-lived · splashery</text></g><g data-session="helpers"><rect data-card="" x="20" y="667.5" width="201.6" height="143.5" rx="9" stroke-width="1" style="fill:#fdfefe;stroke:#b9c1be"/><text x="30" y="688.5" font-size="13.5" font-weight="700" style="fill:#1a201e">One-off helpers</text><text x="30" y="702.5" font-size="10.5" font-weight="700" style="fill:#1f5f4a">Claude Code</text><text x="30" y="715.5" font-size="10.5" font-weight="700" style="fill:#1f5f4a">claude-sonnet-5-5</text><text x="30" y="731" font-size="11" style="fill:#454c49">Short jobs the Operator starts</text><text x="30" y="744.5" font-size="11" style="fill:#454c49">when the pace allows: an</text><text x="30" y="758" font-size="11" style="fill:#454c49">audit, a catalog (two on</text><text x="30" y="771.5" font-size="11" style="fill:#454c49">September 30, none running</text><text x="30" y="785" font-size="11" style="fill:#454c49">now)</text><text x="30" y="799" font-size="10" style="fill:#5f6764">per task · splashery</text></g><g data-session="fresh-routines"><rect x="26" y="825" width="195.6" height="141" rx="9" stroke-width="1" style="fill:#fdfefe;stroke:#dce1df"/><rect x="23" y="822" width="198.6" height="142" rx="9" stroke-width="1" style="fill:#fdfefe;stroke:#dce1df"/><rect data-card="" x="20" y="819" width="201.6" height="143" rx="9" stroke-width="1" style="fill:#fdfefe;stroke:#b9c1be"/><text x="30" y="840" font-size="13.5" font-weight="700" style="fill:#1a201e">Digest and patrol</text><rect x="182.5" y="828.2" width="28.6" height="16.3" rx="8.1" style="fill:#dcefe6"/><text x="196.8" y="839.5" font-size="10.5" font-weight="700" text-anchor="middle" style="fill:#1f5f4a">×2</text><text x="30" y="854" font-size="10.5" font-weight="700" style="fill:#1f5f4a">Claude Code</text><text x="30" y="867" font-size="10.5" font-weight="700" style="fill:#1f5f4a">claude-sonnet-5-5</text><text x="30" y="882.5" font-size="11" style="fill:#454c49">Read-only: a fresh session</text><text x="30" y="896" font-size="11" style="fill:#454c49">each morning reads the state</text><text x="30" y="909.5" font-size="11" style="fill:#454c49">(or tests the live site) and</text><text x="30" y="923" font-size="11" style="fill:#454c49">reports to Ryan's phone</text><text x="30" y="937" font-size="10" style="fill:#5f6764">scheduled · none; each clones</text><text x="30" y="950" font-size="10" style="fill:#5f6764">splashery</text></g><g data-session="research-lanes"><rect x="26" y="982" width="195.6" height="127.5" rx="9" stroke-width="1" style="fill:#fdfefe;stroke:#dce1df"/><rect x="23" y="979" width="198.6" height="128.5" rx="9" stroke-width="1" style="fill:#fdfefe;stroke:#dce1df"/><rect data-card="" x="20" y="976" width="201.6" height="129.5" rx="9" stroke-width="1" style="fill:#fdfefe;stroke:#b9c1be"/><text x="30" y="997" font-size="13.5" font-weight="700" style="fill:#1a201e">Research lanes</text><rect x="182.5" y="985.2" width="28.6" height="16.3" rx="8.1" style="fill:#dcefe6"/><text x="196.8" y="996.5" font-size="10.5" font-weight="700" text-anchor="middle" style="fill:#1f5f4a">×3</text><text x="30" y="1011" font-size="10.5" font-weight="700" style="fill:#1f5f4a">Claude Code</text><text x="30" y="1024" font-size="10.5" font-weight="700" style="fill:#1f5f4a">claude-opus-5-5 (2),</text><text x="30" y="1037" font-size="10.5" font-weight="700" style="fill:#1f5f4a">claude-sonnet-5-5 (1)</text><text x="30" y="1052.5" font-size="11" style="fill:#454c49">A private research project,</text><text x="30" y="1066" font-size="11" style="fill:#454c49">worked in its own lanes; the</text><text x="30" y="1079.5" font-size="11" style="fill:#454c49">Operator is their lead</text><text x="30" y="1093.5" font-size="10" style="fill:#5f6764">per task · the research repo</text></g><g data-session="grooph"><rect data-card="" x="20" y="1172.5" width="201.6" height="116.5" rx="9" stroke-width="1" style="fill:#fdfefe;stroke:#b9c1be"/><text x="30" y="1193.5" font-size="13.5" font-weight="700" style="fill:#1a201e">grooph session</text><text x="30" y="1207.5" font-size="10.5" font-weight="700" style="fill:#1f5f4a">Claude Code</text><text x="30" y="1220.5" font-size="10.5" font-weight="700" style="fill:#1f5f4a">claude-opus-5-5</text><text x="30" y="1236" font-size="11" style="fill:#454c49">Builds grooph: exports,</text><text x="30" y="1249.5" font-size="11" style="fill:#454c49">operation maps and the live</text><text x="30" y="1263" font-size="11" style="fill:#454c49">view. High effort</text><text x="30" y="1277" font-size="10" style="fill:#5f6764">long-lived · grooph</text></g><g data-session="codex"><rect data-card="" x="20" y="1350" width="201.6" height="103.5" rx="9" stroke-width="1" style="fill:#fdfefe;stroke:#b9c1be"/><text x="30" y="1371" font-size="13.5" font-weight="700" style="fill:#1a201e">Codex</text><text x="30" y="1385" font-size="10.5" font-weight="700" style="fill:#2b5f9e">Codex · GPT-6.1 Sol</text><text x="30" y="1400.5" font-size="11" style="fill:#454c49">Outside checks for the research</text><text x="30" y="1414" font-size="11" style="fill:#454c49">project: a prior-art review and</text><text x="30" y="1427.5" font-size="11" style="fill:#454c49">a claim spot-check so far</text><text x="30" y="1441.5" font-size="10" style="fill:#5f6764">per task · the research repo</text></g><g data-handoff="h-start-lanes"><path d="M221.6,174.5 H231.6 Q237.6,174.5 237.6,180.5 V419 Q237.6,425 231.6,425 H227.1" fill="none" stroke-width="1.4" stroke-linecap="round" stroke-dasharray="5 3" style="stroke:#454c49"/><circle cx="221.6" cy="174.5" r="2.2" style="fill:#454c49"/><path d="M222.1,425 l6.5,-3.6 v7.2 z" style="fill:#454c49"/><circle cx="237.6" cy="299.8" r="7.2" stroke-width="1.3" style="fill:#f1f4f3;stroke:#454c49"/><text x="237.6" y="303.1" font-size="9.5" font-weight="700" text-anchor="middle" style="fill:#1a201e">1</text></g><g data-handoff="h-steer-lanes"><path d="M221.6,187.5 H240.8 Q246.8,187.5 246.8,193.5 V432 Q246.8,438 240.8,438 H227.1" fill="none" stroke-width="1.8" stroke-linecap="round" stroke-dasharray="1.5 3" style="stroke:#6b4fa0"/><circle cx="221.6" cy="187.5" r="2.2" style="fill:#6b4fa0"/><path d="M222.1,438 l6.5,-3.6 v7.2 z" style="fill:#6b4fa0"/><circle cx="246.8" cy="320.8" r="7.2" stroke-width="1.3" style="fill:#f1f4f3;stroke:#6b4fa0"/><text x="246.8" y="324.1" font-size="9.5" font-weight="700" text-anchor="middle" style="fill:#1a201e">2</text></g><g data-handoff="h-lanes-back"><path d="M221.6,451 H249.9 Q255.9,451 255.9,445 V206.5 Q255.9,200.5 249.9,200.5 H227.1" fill="none" stroke-width="1.6" stroke-linecap="round" style="stroke:#2b5f9e"/><circle cx="221.6" cy="451" r="2.2" style="fill:#2b5f9e"/><path d="M222.1,200.5 l6.5,-3.6 v7.2 z" style="fill:#2b5f9e"/><circle cx="255.9" cy="341.8" r="7.2" stroke-width="1.3" style="fill:#f1f4f3;stroke:#2b5f9e"/><text x="255.9" y="345.1" font-size="9.5" font-weight="700" text-anchor="middle" style="fill:#1a201e">3</text></g><g data-handoff="h-lanes-clips"><path d="M221.6,464 H259.1 Q265.1,464 265.1,458 V219.5 Q265.1,213.5 259.1,213.5 H227.1" fill="none" stroke-width="1.4" stroke-linecap="round" stroke-dasharray="7 3 1.5 3" style="stroke:#b5306e"/><circle cx="221.6" cy="464" r="2.2" style="fill:#b5306e"/><path d="M222.1,213.5 l6.5,-3.6 v7.2 z" style="fill:#b5306e"/><circle cx="265.1" cy="322.8" r="7.2" stroke-width="1.3" style="fill:#f1f4f3;stroke:#b5306e"/><text x="265.1" y="326.1" font-size="9.5" font-weight="700" text-anchor="middle" style="fill:#1a201e">4</text></g><g data-handoff="h-start-tests"><path d="M221.6,226.5 H268.3 Q274.3,226.5 274.3,232.5 V576 Q274.3,582 268.3,582 H227.1" fill="none" stroke-width="1.8" stroke-linecap="round" stroke-dasharray="1.5 3" style="stroke:#6b4fa0"/><circle cx="221.6" cy="226.5" r="2.2" style="fill:#6b4fa0"/><path d="M222.1,582 l6.5,-3.6 v7.2 z" style="fill:#6b4fa0"/><circle cx="274.3" cy="404.3" r="7.2" stroke-width="1.3" style="fill:#f1f4f3;stroke:#6b4fa0"/><text x="274.3" y="407.6" font-size="9.5" font-weight="700" text-anchor="middle" style="fill:#1a201e">5</text></g><g data-handoff="h-tests-back"><path d="M221.6,595 H277.5 Q283.5,595 283.5,589 V245.5 Q283.5,239.5 277.5,239.5 H227.1" fill="none" stroke-width="1.6" stroke-linecap="round" style="stroke:#1f5f4a"/><circle cx="221.6" cy="595" r="2.2" style="fill:#1f5f4a"/><path d="M222.1,239.5 l6.5,-3.6 v7.2 z" style="fill:#1f5f4a"/><circle cx="283.5" cy="425.3" r="7.2" stroke-width="1.3" style="fill:#f1f4f3;stroke:#1f5f4a"/><text x="283.5" y="428.6" font-size="9.5" font-weight="700" text-anchor="middle" style="fill:#1a201e">6</text></g><g data-handoff="h-start-helpers"><path d="M221.6,252.5 H286.6 Q292.6,252.5 292.6,258.5 V726.8 Q292.6,732.8 286.6,732.8 H227.1" fill="none" stroke-width="1.4" stroke-linecap="round" stroke-dasharray="5 3" style="stroke:#454c49"/><circle cx="221.6" cy="252.5" r="2.2" style="fill:#454c49"/><path d="M222.1,732.8 l6.5,-3.6 v7.2 z" style="fill:#454c49"/><circle cx="292.6" cy="492.6" r="7.2" stroke-width="1.3" style="fill:#f1f4f3;stroke:#454c49"/><text x="292.6" y="495.9" font-size="9.5" font-weight="700" text-anchor="middle" style="fill:#1a201e">7</text></g><g data-handoff="h-helpers-back"><path d="M221.6,745.8 H295.8 Q301.8,745.8 301.8,739.8 V271.5 Q301.8,265.5 295.8,265.5 H227.1" fill="none" stroke-width="1.6" stroke-linecap="round" style="stroke:#2b5f9e"/><circle cx="221.6" cy="745.8" r="2.2" style="fill:#2b5f9e"/><path d="M222.1,265.5 l6.5,-3.6 v7.2 z" style="fill:#2b5f9e"/><circle cx="301.8" cy="513.6" r="7.2" stroke-width="1.3" style="fill:#f1f4f3;stroke:#2b5f9e"/><text x="301.8" y="516.9" font-size="9.5" font-weight="700" text-anchor="middle" style="fill:#1a201e">8</text></g><g data-handoff="h-self-wake"><path d="M221.6,148.5 H231.6 Q237.6,148.5 237.6,154.5 V155.5 Q237.6,161.5 231.6,161.5 H227.1" fill="none" stroke-width="1.8" stroke-linecap="round" stroke-dasharray="1.5 3" style="stroke:#6b4fa0"/><circle cx="221.6" cy="148.5" r="2.2" style="fill:#6b4fa0"/><path d="M222.1,161.5 l6.5,-3.6 v7.2 z" style="fill:#6b4fa0"/><circle cx="237.6" cy="155" r="7.2" stroke-width="1.3" style="fill:#f1f4f3;stroke:#6b4fa0"/><text x="237.6" y="158.3" font-size="9.5" font-weight="700" text-anchor="middle" style="fill:#1a201e">9</text></g><g data-handoff="h-fresh-routines"><path d="M221.6,890.5 H305 Q311,890.5 311,884.5 V284.5 Q311,278.5 305,278.5 H227.1" fill="none" stroke-width="2.4" stroke-linecap="round" style="stroke:#b25e09"/><circle cx="221.6" cy="890.5" r="2.2" style="fill:#b25e09"/><path d="M222.1,278.5 l6.5,-3.6 v7.2 z" style="fill:#b25e09"/><circle cx="311" cy="584.5" r="7.2" stroke-width="1.3" style="fill:#f1f4f3;stroke:#b25e09"/><text x="311" y="587.8" font-size="8.5" font-weight="700" text-anchor="middle" style="fill:#1a201e">10</text></g><g data-handoff="h-start-research"><path d="M221.6,291.5 H314.1 Q320.1,291.5 320.1,297.5 V1008.8 Q320.1,1014.8 314.1,1014.8 H227.1" fill="none" stroke-width="1.4" stroke-linecap="round" stroke-dasharray="5 3" style="stroke:#454c49"/><circle cx="221.6" cy="291.5" r="2.2" style="fill:#454c49"/><path d="M222.1,1014.8 l6.5,-3.6 v7.2 z" style="fill:#454c49"/><circle cx="320.1" cy="653.1" r="7.2" stroke-width="1.3" style="fill:#f1f4f3;stroke:#454c49"/><text x="320.1" y="656.4" font-size="8.5" font-weight="700" text-anchor="middle" style="fill:#1a201e">11</text></g><g data-handoff="h-research-back"><path d="M221.6,1027.8 H323.3 Q329.3,1027.8 329.3,1021.8 V310.5 Q329.3,304.5 323.3,304.5 H227.1" fill="none" stroke-width="1.6" stroke-linecap="round" style="stroke:#1f5f4a"/><circle cx="221.6" cy="1027.8" r="2.2" style="fill:#1f5f4a"/><path d="M222.1,304.5 l6.5,-3.6 v7.2 z" style="fill:#1f5f4a"/><circle cx="329.3" cy="674.1" r="7.2" stroke-width="1.3" style="fill:#f1f4f3;stroke:#1f5f4a"/><text x="329.3" y="677.4" font-size="8.5" font-weight="700" text-anchor="middle" style="fill:#1a201e">12</text></g><g data-handoff="h-research-each-other"><path d="M221.6,1040.8 H231.6 Q237.6,1040.8 237.6,1046.8 V1047.8 Q237.6,1053.8 231.6,1053.8 H227.1" fill="none" stroke-width="1.6" stroke-linecap="round" style="stroke:#1f5f4a"/><circle cx="221.6" cy="1040.8" r="2.2" style="fill:#1f5f4a"/><path d="M222.1,1053.8 l6.5,-3.6 v7.2 z" style="fill:#1f5f4a"/><circle cx="237.6" cy="1047.3" r="7.2" stroke-width="1.3" style="fill:#f1f4f3;stroke:#1f5f4a"/><text x="237.6" y="1050.6" font-size="8.5" font-weight="700" text-anchor="middle" style="fill:#1a201e">13</text></g><g data-handoff="h-brief-codex"><path d="M221.6,343.5 H350.8 Q356.8,343.5 356.8,349.5 V1395.8 Q356.8,1401.8 350.8,1401.8 H227.1" fill="none" stroke-width="2.4" stroke-linecap="round" style="stroke:#b25e09"/><circle cx="221.6" cy="343.5" r="2.2" style="fill:#b25e09"/><path d="M222.1,1401.8 l6.5,-3.6 v7.2 z" style="fill:#b25e09"/><circle cx="356.8" cy="872.6" r="7.2" stroke-width="1.3" style="fill:#f1f4f3;stroke:#b25e09"/><text x="356.8" y="875.9" font-size="8.5" font-weight="700" text-anchor="middle" style="fill:#1a201e">14</text></g><g data-handoff="h-codex-back"><path d="M221.6,1414.8 H360 Q366,1414.8 366,1408.8 V362.5 Q366,356.5 360,356.5 H227.1" fill="none" stroke-width="1.6" stroke-linecap="round" style="stroke:#1f5f4a"/><circle cx="221.6" cy="1414.8" r="2.2" style="fill:#1f5f4a"/><path d="M222.1,356.5 l6.5,-3.6 v7.2 z" style="fill:#1f5f4a"/><circle cx="366" cy="893.6" r="7.2" stroke-width="1.3" style="fill:#f1f4f3;stroke:#1f5f4a"/><text x="366" y="896.9" font-size="8.5" font-weight="700" text-anchor="middle" style="fill:#1a201e">15</text></g><g data-handoff="h-codex-research"><path d="M221.6,1388.8 H231.6 Q237.6,1388.8 237.6,1382.8 V1072.8 Q237.6,1066.8 231.6,1066.8 H227.1" fill="none" stroke-width="1.6" stroke-linecap="round" style="stroke:#1f5f4a"/><circle cx="221.6" cy="1388.8" r="2.2" style="fill:#1f5f4a"/><path d="M222.1,1066.8 l6.5,-3.6 v7.2 z" style="fill:#1f5f4a"/><circle cx="237.6" cy="1227.8" r="7.2" stroke-width="1.3" style="fill:#f1f4f3;stroke:#1f5f4a"/><text x="237.6" y="1231.1" font-size="8.5" font-weight="700" text-anchor="middle" style="fill:#1a201e">16</text></g><g data-handoff="h-brief-grooph"><path d="M221.6,317.5 H332.5 Q338.5,317.5 338.5,323.5 V1218.3 Q338.5,1224.3 332.5,1224.3 H227.1" fill="none" stroke-width="2.4" stroke-linecap="round" style="stroke:#b25e09"/><circle cx="221.6" cy="317.5" r="2.2" style="fill:#b25e09"/><path d="M222.1,1224.3 l6.5,-3.6 v7.2 z" style="fill:#b25e09"/><circle cx="338.5" cy="770.9" r="7.2" stroke-width="1.3" style="fill:#f1f4f3;stroke:#b25e09"/><text x="338.5" y="774.2" font-size="8.5" font-weight="700" text-anchor="middle" style="fill:#1a201e">17</text></g><g data-handoff="h-grooph-back"><path d="M221.6,1237.3 H341.7 Q347.7,1237.3 347.7,1231.3 V336.5 Q347.7,330.5 341.7,330.5 H227.1" fill="none" stroke-width="1.6" stroke-linecap="round" style="stroke:#1f5f4a"/><circle cx="221.6" cy="1237.3" r="2.2" style="fill:#1f5f4a"/><path d="M222.1,330.5 l6.5,-3.6 v7.2 z" style="fill:#1f5f4a"/><circle cx="347.7" cy="791.9" r="7.2" stroke-width="1.3" style="fill:#f1f4f3;stroke:#1f5f4a"/><text x="347.7" y="795.2" font-size="8.5" font-weight="700" text-anchor="middle" style="fill:#1a201e">18</text></g><text x="12" y="1488.5" font-size="12.5" font-weight="700" style="fill:#1a201e">Handoffs</text><g data-handoff-row="h-start-lanes"><rect data-row="" x="8" y="1495.5" width="384" height="61" rx="8" style="fill:transparent"/><circle cx="20" cy="1505.5" r="7.2" stroke-width="1.3" style="fill:#f1f4f3;stroke:#454c49"/><text x="20" y="1508.8" font-size="9.5" font-weight="700" text-anchor="middle" style="fill:#1a201e">1</text><text x="36" y="1509.5" font-size="12" font-weight="700" style="fill:#1a201e">Operator → Splashery lanes</text><path d="M36,1520 h18" fill="none" stroke-width="1.4" stroke-linecap="round" stroke-dasharray="5 3" style="stroke:#454c49"/><text x="60" y="1523.5" font-size="11" font-weight="700" style="fill:#454c49">session message</text><text x="36" y="1537" font-size="11" style="fill:#454c49">a new lane: create_session (Claude Code Remote tools) with</text><text x="36" y="1550.5" font-size="11" style="fill:#454c49">the brief as its first prompt, its model and its branch</text></g><g data-handoff-row="h-steer-lanes"><rect data-row="" x="8" y="1559.5" width="384" height="61" rx="8" style="fill:transparent"/><circle cx="20" cy="1569.5" r="7.2" stroke-width="1.3" style="fill:#f1f4f3;stroke:#6b4fa0"/><text x="20" y="1572.8" font-size="9.5" font-weight="700" text-anchor="middle" style="fill:#1a201e">2</text><text x="36" y="1573.5" font-size="12" font-weight="700" style="fill:#1a201e">Operator → Splashery lanes</text><path d="M36,1584 h18" fill="none" stroke-width="1.8" stroke-linecap="round" stroke-dasharray="1.5 3" style="stroke:#6b4fa0"/><text x="60" y="1587.5" font-size="11" font-weight="700" style="fill:#6b4fa0">scheduled message, one-shot routine</text><text x="36" y="1601" font-size="11" style="fill:#454c49">each later message: a new round, a failure to fix, merge</text><text x="36" y="1614.5" font-size="11" style="fill:#454c49">main, Ryan's marks</text></g><g data-handoff-row="h-lanes-back"><rect data-row="" x="8" y="1623.5" width="384" height="74.5" rx="8" style="fill:transparent"/><circle cx="20" cy="1633.5" r="7.2" stroke-width="1.3" style="fill:#f1f4f3;stroke:#2b5f9e"/><text x="20" y="1636.8" font-size="9.5" font-weight="700" text-anchor="middle" style="fill:#1a201e">3</text><text x="36" y="1637.5" font-size="12" font-weight="700" style="fill:#1a201e">Splashery lanes → Operator</text><path d="M36,1648 h18" fill="none" stroke-width="1.6" stroke-linecap="round" style="stroke:#2b5f9e"/><text x="60" y="1651.5" font-size="11" font-weight="700" style="fill:#2b5f9e">pull request on splashery</text><text x="36" y="1665" font-size="11" style="fill:#454c49">one draft PR per round, plus a handoff file on the branch;</text><text x="36" y="1678.5" font-size="11" style="fill:#454c49">the Operator reads the lane's last message and status with</text><text x="36" y="1692" font-size="11" style="fill:#454c49">get_session, not its transcript</text></g><g data-handoff-row="h-lanes-clips"><rect data-row="" x="8" y="1701" width="384" height="61" rx="8" style="fill:transparent"/><circle cx="20" cy="1711" r="7.2" stroke-width="1.3" style="fill:#f1f4f3;stroke:#b5306e"/><text x="20" y="1714.3" font-size="9.5" font-weight="700" text-anchor="middle" style="fill:#1a201e">4</text><text x="36" y="1715" font-size="12" font-weight="700" style="fill:#1a201e">Splashery lanes → Operator</text><path d="M36,1725.5 h18" fill="none" stroke-width="1.4" stroke-linecap="round" stroke-dasharray="7 3 1.5 3" style="stroke:#b5306e"/><text x="60" y="1729" font-size="11" font-weight="700" style="fill:#b5306e">review page: private review pages on account B</text><text x="36" y="1742.5" font-size="11" style="fill:#454c49">a preview of each changed piece; Ryan marks each good or</text><text x="36" y="1756" font-size="11" style="fill:#454c49">fix, and the Operator and the lane read the marks</text></g><g data-handoff-row="h-start-tests"><rect data-row="" x="8" y="1765" width="384" height="47.5" rx="8" style="fill:transparent"/><circle cx="20" cy="1775" r="7.2" stroke-width="1.3" style="fill:#f1f4f3;stroke:#6b4fa0"/><text x="20" y="1778.3" font-size="9.5" font-weight="700" text-anchor="middle" style="fill:#1a201e">5</text><text x="36" y="1779" font-size="12" font-weight="700" style="fill:#1a201e">Operator → Integrators</text><path d="M36,1789.5 h18" fill="none" stroke-width="1.8" stroke-linecap="round" stroke-dasharray="1.5 3" style="stroke:#6b4fa0"/><text x="60" y="1793" font-size="11" font-weight="700" style="fill:#6b4fa0">scheduled message, one-shot routine</text><text x="36" y="1806.5" font-size="11" style="fill:#454c49">which PRs and SHAs to merge onto main and test</text></g><g data-handoff-row="h-tests-back"><rect data-row="" x="8" y="1815.5" width="384" height="61" rx="8" style="fill:transparent"/><circle cx="20" cy="1825.5" r="7.2" stroke-width="1.3" style="fill:#f1f4f3;stroke:#1f5f4a"/><text x="20" y="1828.8" font-size="9.5" font-weight="700" text-anchor="middle" style="fill:#1a201e">6</text><text x="36" y="1829.5" font-size="12" font-weight="700" style="fill:#1a201e">Integrators → Operator</text><path d="M36,1840 h18" fill="none" stroke-width="1.6" stroke-linecap="round" style="stroke:#1f5f4a"/><text x="60" y="1843.5" font-size="11" font-weight="700" style="fill:#1f5f4a">branch on splashery</text><text x="36" y="1857" font-size="11" style="fill:#454c49">a results file per run on a results branch: a RESULT line, the</text><text x="36" y="1870.5" font-size="11" style="fill:#454c49">tree tested, each failure and its owner</text></g><g data-handoff-row="h-start-helpers"><rect data-row="" x="8" y="1879.5" width="384" height="47.5" rx="8" style="fill:transparent"/><circle cx="20" cy="1889.5" r="7.2" stroke-width="1.3" style="fill:#f1f4f3;stroke:#454c49"/><text x="20" y="1892.8" font-size="9.5" font-weight="700" text-anchor="middle" style="fill:#1a201e">7</text><text x="36" y="1893.5" font-size="12" font-weight="700" style="fill:#1a201e">Operator → One-off helpers</text><path d="M36,1904 h18" fill="none" stroke-width="1.4" stroke-linecap="round" stroke-dasharray="5 3" style="stroke:#454c49"/><text x="60" y="1907.5" font-size="11" font-weight="700" style="fill:#454c49">session message</text><text x="36" y="1921" font-size="11" style="fill:#454c49">a one-off job</text></g><g data-handoff-row="h-helpers-back"><rect data-row="" x="8" y="1930" width="384" height="47.5" rx="8" style="fill:transparent"/><circle cx="20" cy="1940" r="7.2" stroke-width="1.3" style="fill:#f1f4f3;stroke:#2b5f9e"/><text x="20" y="1943.3" font-size="9.5" font-weight="700" text-anchor="middle" style="fill:#1a201e">8</text><text x="36" y="1944" font-size="12" font-weight="700" style="fill:#1a201e">One-off helpers → Operator</text><path d="M36,1954.5 h18" fill="none" stroke-width="1.6" stroke-linecap="round" style="stroke:#2b5f9e"/><text x="60" y="1958" font-size="11" font-weight="700" style="fill:#2b5f9e">pull request on splashery</text><text x="36" y="1971.5" font-size="11" style="fill:#454c49">a report or catalog as a docs PR</text></g><g data-handoff-row="h-self-wake"><rect data-row="" x="8" y="1980.5" width="384" height="74.5" rx="8" style="fill:transparent"/><circle cx="20" cy="1990.5" r="7.2" stroke-width="1.3" style="fill:#f1f4f3;stroke:#6b4fa0"/><text x="20" y="1993.8" font-size="9.5" font-weight="700" text-anchor="middle" style="fill:#1a201e">9</text><text x="36" y="1994.5" font-size="12" font-weight="700" style="fill:#1a201e">Operator → itself</text><path d="M36,2005 h18" fill="none" stroke-width="1.8" stroke-linecap="round" stroke-dasharray="1.5 3" style="stroke:#6b4fa0"/><text x="60" y="2008.5" font-size="11" font-weight="700" style="fill:#6b4fa0">scheduled message, every 30-45 min</text><text x="36" y="2022" font-size="11" style="fill:#454c49">its own check-ins (one-shot, self-scheduled) and two</text><text x="36" y="2035.5" font-size="11" style="fill:#454c49">routines of its own: a backup twice a day and a weekly ideas</text><text x="36" y="2049" font-size="11" style="fill:#454c49">run</text></g><g data-handoff-row="h-fresh-routines"><rect data-row="" x="8" y="2058" width="384" height="61" rx="8" style="fill:transparent"/><circle cx="20" cy="2068" r="7.2" stroke-width="1.3" style="fill:#f1f4f3;stroke:#b25e09"/><text x="20" y="2071.3" font-size="8.5" font-weight="700" text-anchor="middle" style="fill:#1a201e">10</text><text x="36" y="2072" font-size="12" font-weight="700" style="fill:#1a201e">Digest and patrol → Operator</text><path d="M36,2082.5 h18" fill="none" stroke-width="2.4" stroke-linecap="round" style="stroke:#b25e09"/><text x="60" y="2086" font-size="11" font-weight="700" style="fill:#b25e09">carried by Ryan</text><text x="36" y="2099.5" font-size="11" style="fill:#454c49">a push notification to Ryan's phone each morning; anything</text><text x="36" y="2113" font-size="11" style="fill:#454c49">for the Operator, Ryan passes on</text></g><g data-handoff-row="h-start-research"><rect data-row="" x="8" y="2122" width="384" height="61" rx="8" style="fill:transparent"/><circle cx="20" cy="2132" r="7.2" stroke-width="1.3" style="fill:#f1f4f3;stroke:#454c49"/><text x="20" y="2135.3" font-size="8.5" font-weight="700" text-anchor="middle" style="fill:#1a201e">11</text><text x="36" y="2136" font-size="12" font-weight="700" style="fill:#1a201e">Operator → Research lanes</text><path d="M36,2146.5 h18" fill="none" stroke-width="1.4" stroke-linecap="round" stroke-dasharray="5 3" style="stroke:#454c49"/><text x="60" y="2150" font-size="11" font-weight="700" style="fill:#454c49">session message</text><text x="36" y="2163.5" font-size="11" style="fill:#454c49">a new lane, as for Splashery; later messages by one-shot</text><text x="36" y="2177" font-size="11" style="fill:#454c49">routine</text></g><g data-handoff-row="h-research-back"><rect data-row="" x="8" y="2186" width="384" height="47.5" rx="8" style="fill:transparent"/><circle cx="20" cy="2196" r="7.2" stroke-width="1.3" style="fill:#f1f4f3;stroke:#1f5f4a"/><text x="20" y="2199.3" font-size="8.5" font-weight="700" text-anchor="middle" style="fill:#1a201e">12</text><text x="36" y="2200" font-size="12" font-weight="700" style="fill:#1a201e">Research lanes → Operator</text><path d="M36,2210.5 h18" fill="none" stroke-width="1.6" stroke-linecap="round" style="stroke:#1f5f4a"/><text x="60" y="2214" font-size="11" font-weight="700" style="fill:#1f5f4a">branch on the research repo</text><text x="36" y="2227.5" font-size="11" style="fill:#454c49">each lane's branch and PRs</text></g><g data-handoff-row="h-research-each-other"><rect data-row="" x="8" y="2236.5" width="384" height="47.5" rx="8" style="fill:transparent"/><circle cx="20" cy="2246.5" r="7.2" stroke-width="1.3" style="fill:#f1f4f3;stroke:#1f5f4a"/><text x="20" y="2249.8" font-size="8.5" font-weight="700" text-anchor="middle" style="fill:#1a201e">13</text><text x="36" y="2250.5" font-size="12" font-weight="700" style="fill:#1a201e">Research lanes → itself</text><path d="M36,2261 h18" fill="none" stroke-width="1.6" stroke-linecap="round" style="stroke:#1f5f4a"/><text x="60" y="2264.5" font-size="11" font-weight="700" style="fill:#1f5f4a">branch on the research repo</text><text x="36" y="2278" font-size="11" style="fill:#454c49">one lane builds on another's branch</text></g><g data-handoff-row="h-brief-codex"><rect data-row="" x="8" y="2287" width="384" height="47.5" rx="8" style="fill:transparent"/><circle cx="20" cy="2297" r="7.2" stroke-width="1.3" style="fill:#f1f4f3;stroke:#b25e09"/><text x="20" y="2300.3" font-size="8.5" font-weight="700" text-anchor="middle" style="fill:#1a201e">14</text><text x="36" y="2301" font-size="12" font-weight="700" style="fill:#1a201e">Operator → Codex</text><path d="M36,2311.5 h18" fill="none" stroke-width="2.4" stroke-linecap="round" style="stroke:#b25e09"/><text x="60" y="2315" font-size="11" font-weight="700" style="fill:#b25e09">carried by Ryan</text><text x="36" y="2328.5" font-size="11" style="fill:#454c49">a prompt the Operator writes; Ryan pastes it into Codex</text></g><g data-handoff-row="h-codex-back"><rect data-row="" x="8" y="2337.5" width="384" height="47.5" rx="8" style="fill:transparent"/><circle cx="20" cy="2347.5" r="7.2" stroke-width="1.3" style="fill:#f1f4f3;stroke:#1f5f4a"/><text x="20" y="2350.8" font-size="8.5" font-weight="700" text-anchor="middle" style="fill:#1a201e">15</text><text x="36" y="2351.5" font-size="12" font-weight="700" style="fill:#1a201e">Codex → Operator</text><path d="M36,2362 h18" fill="none" stroke-width="1.6" stroke-linecap="round" style="stroke:#1f5f4a"/><text x="60" y="2365.5" font-size="11" font-weight="700" style="fill:#1f5f4a">branch on the research repo</text><text x="36" y="2379" font-size="11" style="fill:#454c49">Codex's work on its own branch, which the Operator fetches</text></g><g data-handoff-row="h-codex-research"><rect data-row="" x="8" y="2388" width="384" height="61" rx="8" style="fill:transparent"/><circle cx="20" cy="2398" r="7.2" stroke-width="1.3" style="fill:#f1f4f3;stroke:#1f5f4a"/><text x="20" y="2401.3" font-size="8.5" font-weight="700" text-anchor="middle" style="fill:#1a201e">16</text><text x="36" y="2402" font-size="12" font-weight="700" style="fill:#1a201e">Codex → Research lanes</text><path d="M36,2412.5 h18" fill="none" stroke-width="1.6" stroke-linecap="round" style="stroke:#1f5f4a"/><text x="60" y="2416" font-size="11" font-weight="700" style="fill:#1f5f4a">branch on the research repo</text><text x="36" y="2429.5" font-size="11" style="fill:#454c49">corrections a research lane ports in, when the Operator says</text><text x="36" y="2443" font-size="11" style="fill:#454c49">so</text></g><g data-handoff-row="h-brief-grooph"><rect data-row="" x="8" y="2452" width="384" height="61" rx="8" style="fill:transparent"/><circle cx="20" cy="2462" r="7.2" stroke-width="1.3" style="fill:#f1f4f3;stroke:#b25e09"/><text x="20" y="2465.3" font-size="8.5" font-weight="700" text-anchor="middle" style="fill:#1a201e">17</text><text x="36" y="2466" font-size="12" font-weight="700" style="fill:#1a201e">Operator → grooph session</text><path d="M36,2476.5 h18" fill="none" stroke-width="2.4" stroke-linecap="round" style="stroke:#b25e09"/><text x="60" y="2480" font-size="11" font-weight="700" style="fill:#b25e09">carried by Ryan</text><text x="36" y="2493.5" font-size="11" style="fill:#454c49">the bootstrap prompt from a private page on account B;</text><text x="36" y="2507" font-size="11" style="fill:#454c49">Ryan pastes it</text></g><g data-handoff-row="h-grooph-back"><rect data-row="" x="8" y="2516" width="384" height="61" rx="8" style="fill:transparent"/><circle cx="20" cy="2526" r="7.2" stroke-width="1.3" style="fill:#f1f4f3;stroke:#1f5f4a"/><text x="20" y="2529.3" font-size="8.5" font-weight="700" text-anchor="middle" style="fill:#1a201e">18</text><text x="36" y="2530" font-size="12" font-weight="700" style="fill:#1a201e">grooph session → Operator</text><path d="M36,2540.5 h18" fill="none" stroke-width="1.6" stroke-linecap="round" style="stroke:#1f5f4a"/><text x="60" y="2544" font-size="11" font-weight="700" style="fill:#1f5f4a">branch main on grooph</text><text x="36" y="2557.5" font-size="11" style="fill:#454c49">docs/HANDBACK-operator.md; Ryan pastes a short prompt</text><text x="36" y="2571" font-size="11" style="fill:#454c49">that points to it</text></g></svg>
