<svg xmlns="http://www.w3.org/2000/svg" class="grooph-picture" data-picture="map" viewBox="0 0 400 1613" width="400" height="1613" role="img" font-family="system-ui, -apple-system, 'Segoe UI', Roboto, 'Helvetica Neue', Arial, sans-serif"><title>Ryan's operation, September 30, 2026</title><rect x="0" y="0" width="400" height="1613" style="fill:#f1f4f3"/><text x="12" y="35" font-size="17" font-weight="700" style="fill:#1a201e">Ryan's operation, September 30,</text><text x="12" y="56" font-size="17" font-weight="700" style="fill:#1a201e">2026</text><text x="12" y="73" font-size="11" style="fill:#5f6764">as of 2026-09-30 · 3 lanes · 7 sessions (18 counting families) ·</text><text x="12" y="86" font-size="11" style="fill:#5f6764">10 handoffs, 2 carried by a person</text><g data-lane="cloud-b"><rect x="12" y="98" width="376" height="596.5" rx="12" stroke-width="1" style="fill:#e8edeb;stroke:#dce1df"/><text x="22" y="118" font-size="12.5" font-weight="700" style="fill:#1a201e">Cloud, Claude account B</text><rect x="205.9" y="107.2" width="40.1" height="14.7" rx="7.4" stroke-width="1" style="fill:#fdfefe;stroke:#b9c1be"/><text x="226" y="117.5" font-size="9.5" font-weight="700" text-anchor="middle" style="fill:#454c49">cloud</text><text x="22" y="131.5" font-size="10.5" style="fill:#5f6764">Claude Code cloud sandboxes · Claude</text><text x="22" y="145" font-size="10.5" style="fill:#5f6764">account B</text></g><g data-lane="mac-a"><rect x="12" y="704.5" width="376" height="169.5" rx="12" stroke-width="1" style="fill:#e8edeb;stroke:#dce1df"/><text x="22" y="724.5" font-size="12.5" font-weight="700" style="fill:#1a201e">The Mac, Claude account</text><rect x="209.8" y="713.7" width="36.2" height="14.7" rx="7.4" stroke-width="1" style="fill:#fdfefe;stroke:#b9c1be"/><text x="227.9" y="724" font-size="9.5" font-weight="700" text-anchor="middle" style="fill:#454c49">local</text><text x="22" y="739.5" font-size="12.5" font-weight="700" style="fill:#1a201e">A</text><text x="22" y="753" font-size="10.5" style="fill:#5f6764">Ryan's Mac · Claude account A</text></g><g data-lane="mac-openai"><rect x="12" y="884" width="376" height="168.5" rx="12" stroke-width="1" style="fill:#e8edeb;stroke:#dce1df"/><text x="22" y="904" font-size="12.5" font-weight="700" style="fill:#1a201e">The Mac, OpenAI</text><rect x="209.8" y="893.2" width="36.2" height="14.7" rx="7.4" stroke-width="1" style="fill:#fdfefe;stroke:#b9c1be"/><text x="227.9" y="903.5" font-size="9.5" font-weight="700" text-anchor="middle" style="fill:#454c49">local</text><text x="22" y="919" font-size="12.5" font-weight="700" style="fill:#1a201e">account</text><text x="22" y="932.5" font-size="10.5" style="fill:#5f6764">Ryan's Mac · OpenAI account</text></g><g data-session="operator"><rect data-card="" x="20" y="154.5" width="226" height="134" rx="9" stroke-width="1" style="fill:#fdfefe;stroke:#b9c1be"/><text x="30" y="175.5" font-size="13.5" font-weight="700" style="fill:#1a201e">Operator</text><text x="30" y="189.5" font-size="10.5" font-weight="700" style="fill:#1f5f4a">Claude Code</text><text x="30" y="205" font-size="11" style="fill:#454c49">Keeps the plan; starts and steers</text><text x="30" y="218.5" font-size="11" style="fill:#454c49">the worker sessions, test runners</text><text x="30" y="232" font-size="11" style="fill:#454c49">and routines</text><text x="30" y="246" font-size="10" style="fill:#5f6764">long-lived · the Splashery repository</text></g><g data-session="workers"><rect x="26" y="302.5" width="220" height="88" rx="9" stroke-width="1" style="fill:#fdfefe;stroke:#dce1df"/><rect x="23" y="299.5" width="223" height="89" rx="9" stroke-width="1" style="fill:#fdfefe;stroke:#dce1df"/><rect data-card="" x="20" y="296.5" width="226" height="90" rx="9" stroke-width="1" style="fill:#fdfefe;stroke:#b9c1be"/><text x="30" y="317.5" font-size="13.5" font-weight="700" style="fill:#1a201e">Worker lanes</text><rect x="199.2" y="305.7" width="36.3" height="16.3" rx="8.1" style="fill:#dcefe6"/><text x="217.4" y="317" font-size="10.5" font-weight="700" text-anchor="middle" style="fill:#1f5f4a">×12</text><text x="30" y="331.5" font-size="10.5" font-weight="700" style="fill:#1f5f4a">Claude Code</text><text x="30" y="347" font-size="11" style="fill:#454c49">Each builds one piece of Splashery</text><text x="30" y="360.5" font-size="11" style="fill:#454c49">on its own branch</text><text x="30" y="374.5" font-size="10" style="fill:#5f6764">per task · the Splashery repository</text></g><g data-session="test-runners"><rect data-card="" x="20" y="400.5" width="226" height="90" rx="9" stroke-width="1" style="fill:#fdfefe;stroke:#b9c1be"/><text x="30" y="421.5" font-size="13.5" font-weight="700" style="fill:#1a201e">Test runners</text><text x="30" y="435.5" font-size="10.5" font-weight="700" style="fill:#1f5f4a">Claude Code</text><text x="30" y="451" font-size="11" style="fill:#454c49">Run the test suites against a</text><text x="30" y="464.5" font-size="11" style="fill:#454c49">branch and report what failed</text><text x="30" y="478.5" font-size="10" style="fill:#5f6764">per task · the Splashery repository</text></g><g data-session="routines"><rect data-card="" x="20" y="498.5" width="226" height="90" rx="9" stroke-width="1" style="fill:#fdfefe;stroke:#b9c1be"/><text x="30" y="519.5" font-size="13.5" font-weight="700" style="fill:#1a201e">Scheduled routines</text><text x="30" y="533.5" font-size="10.5" font-weight="700" style="fill:#1f5f4a">Claude Code</text><text x="30" y="549" font-size="11" style="fill:#454c49">Wake on a schedule to check on</text><text x="30" y="562.5" font-size="11" style="fill:#454c49">the work and nudge the Operator</text><text x="30" y="576.5" font-size="10" style="fill:#5f6764">scheduled</text></g><g data-session="research"><rect data-card="" x="20" y="596.5" width="226" height="90" rx="9" stroke-width="1" style="fill:#fdfefe;stroke:#b9c1be"/><text x="30" y="617.5" font-size="13.5" font-weight="700" style="fill:#1a201e">Research lanes</text><text x="30" y="631.5" font-size="10.5" font-weight="700" style="fill:#1f5f4a">Claude Code</text><text x="30" y="647" font-size="11" style="fill:#454c49">A private research project, worked</text><text x="30" y="660.5" font-size="11" style="fill:#454c49">in its own cloud sessions</text><text x="30" y="674.5" font-size="10" style="fill:#5f6764">per task · a private research repository</text></g><g data-session="grooph"><rect data-card="" x="20" y="762.5" width="226" height="103.5" rx="9" stroke-width="1" style="fill:#fdfefe;stroke:#b9c1be"/><text x="30" y="783.5" font-size="13.5" font-weight="700" style="fill:#1a201e">grooph session</text><text x="30" y="797.5" font-size="10.5" font-weight="700" style="fill:#1f5f4a">Claude Code · Opus 5.5</text><text x="30" y="813" font-size="11" style="fill:#454c49">Builds grooph: exports, operation</text><text x="30" y="826.5" font-size="11" style="fill:#454c49">maps and the live view the</text><text x="30" y="840" font-size="11" style="fill:#454c49">Operator will use</text><text x="30" y="854" font-size="10" style="fill:#5f6764">long-lived · ryanjosephkamp/grooph</text></g><g data-session="codex"><rect data-card="" x="20" y="942" width="226" height="102.5" rx="9" stroke-width="1" style="fill:#fdfefe;stroke:#b9c1be"/><text x="30" y="963" font-size="13.5" font-weight="700" style="fill:#1a201e">Codex</text><text x="30" y="977" font-size="10.5" font-weight="700" style="fill:#2b5f9e">Codex</text><text x="30" y="990" font-size="10.5" font-weight="700" style="fill:#2b5f9e">GPT-6.1 Sol and other OpenAI</text><text x="30" y="1003" font-size="10.5" font-weight="700" style="fill:#2b5f9e">models</text><text x="30" y="1018.5" font-size="11" style="fill:#454c49">Codex work on the Mac</text><text x="30" y="1032.5" font-size="10" style="fill:#5f6764">per task</text></g><g data-handoff="h-start-workers"><path d="M246,169.5 H256 Q262,169.5 262,175.5 V329 Q262,335 256,335 H251.5" fill="none" stroke-width="1.4" stroke-linecap="round" stroke-dasharray="5 3" style="stroke:#454c49"/><circle cx="246" cy="169.5" r="2.2" style="fill:#454c49"/><path d="M246.5,335 l6.5,-3.6 v7.2 z" style="fill:#454c49"/><circle cx="262" cy="252.3" r="7.2" stroke-width="1.3" style="fill:#f1f4f3;stroke:#454c49"/><text x="262" y="255.6" font-size="9.5" font-weight="700" text-anchor="middle" style="fill:#1a201e">1</text></g><g data-handoff="h-workers-back"><path d="M246,348 H269 Q275,348 275,342 V188.5 Q275,182.5 269,182.5 H251.5" fill="none" stroke-width="1.6" stroke-linecap="round" style="stroke:#2b5f9e"/><circle cx="246" cy="348" r="2.2" style="fill:#2b5f9e"/><path d="M246.5,182.5 l6.5,-3.6 v7.2 z" style="fill:#2b5f9e"/><circle cx="275" cy="273.3" r="7.2" stroke-width="1.3" style="fill:#f1f4f3;stroke:#2b5f9e"/><text x="275" y="276.6" font-size="9.5" font-weight="700" text-anchor="middle" style="fill:#1a201e">2</text></g><g data-handoff="h-start-tests"><path d="M246,195.5 H282 Q288,195.5 288,201.5 V433 Q288,439 282,439 H251.5" fill="none" stroke-width="1.4" stroke-linecap="round" stroke-dasharray="5 3" style="stroke:#454c49"/><circle cx="246" cy="195.5" r="2.2" style="fill:#454c49"/><path d="M246.5,439 l6.5,-3.6 v7.2 z" style="fill:#454c49"/><circle cx="288" cy="317.3" r="7.2" stroke-width="1.3" style="fill:#f1f4f3;stroke:#454c49"/><text x="288" y="320.6" font-size="9.5" font-weight="700" text-anchor="middle" style="fill:#1a201e">3</text></g><g data-handoff="h-tests-back"><path d="M246,452 H295 Q301,452 301,446 V214.5 Q301,208.5 295,208.5 H251.5" fill="none" stroke-width="1.6" stroke-linecap="round" style="stroke:#1f5f4a"/><circle cx="246" cy="452" r="2.2" style="fill:#1f5f4a"/><path d="M246.5,208.5 l6.5,-3.6 v7.2 z" style="fill:#1f5f4a"/><circle cx="301" cy="338.3" r="7.2" stroke-width="1.3" style="fill:#f1f4f3;stroke:#1f5f4a"/><text x="301" y="341.6" font-size="9.5" font-weight="700" text-anchor="middle" style="fill:#1a201e">4</text></g><g data-handoff="h-routines"><path d="M246,543.5 H308 Q314,543.5 314,537.5 V227.5 Q314,221.5 308,221.5 H251.5" fill="none" stroke-width="1.8" stroke-linecap="round" stroke-dasharray="1.5 3" style="stroke:#6b4fa0"/><circle cx="246" cy="543.5" r="2.2" style="fill:#6b4fa0"/><path d="M246.5,221.5 l6.5,-3.6 v7.2 z" style="fill:#6b4fa0"/><circle cx="314" cy="382.5" r="7.2" stroke-width="1.3" style="fill:#f1f4f3;stroke:#6b4fa0"/><text x="314" y="385.8" font-size="9.5" font-weight="700" text-anchor="middle" style="fill:#1a201e">5</text></g><g data-handoff="h-research"><path d="M246,635 H256 Q262,635 262,641 V642 Q262,648 256,648 H251.5" fill="none" stroke-width="1.6" stroke-linecap="round" style="stroke:#1f5f4a"/><circle cx="246" cy="635" r="2.2" style="fill:#1f5f4a"/><path d="M246.5,648 l6.5,-3.6 v7.2 z" style="fill:#1f5f4a"/><circle cx="262" cy="641.5" r="7.2" stroke-width="1.3" style="fill:#f1f4f3;stroke:#1f5f4a"/><text x="262" y="644.8" font-size="9.5" font-weight="700" text-anchor="middle" style="fill:#1a201e">6</text></g><g data-handoff="h-brief-grooph"><path d="M246,234.5 H321 Q327,234.5 327,240.5 V801.8 Q327,807.8 321,807.8 H251.5" fill="none" stroke-width="2.4" stroke-linecap="round" style="stroke:#b25e09"/><circle cx="246" cy="234.5" r="2.2" style="fill:#b25e09"/><path d="M246.5,807.8 l6.5,-3.6 v7.2 z" style="fill:#b25e09"/><circle cx="327" cy="521.1" r="7.2" stroke-width="1.3" style="fill:#f1f4f3;stroke:#b25e09"/><text x="327" y="524.4" font-size="9.5" font-weight="700" text-anchor="middle" style="fill:#1a201e">7</text></g><g data-handoff="h-grooph-back"><path d="M246,820.8 H334 Q340,820.8 340,814.8 V253.5 Q340,247.5 334,247.5 H251.5" fill="none" stroke-width="1.6" stroke-linecap="round" style="stroke:#1f5f4a"/><circle cx="246" cy="820.8" r="2.2" style="fill:#1f5f4a"/><path d="M246.5,247.5 l6.5,-3.6 v7.2 z" style="fill:#1f5f4a"/><circle cx="340" cy="542.1" r="7.2" stroke-width="1.3" style="fill:#f1f4f3;stroke:#1f5f4a"/><text x="340" y="545.4" font-size="9.5" font-weight="700" text-anchor="middle" style="fill:#1a201e">8</text></g><g data-handoff="h-brief-codex"><path d="M246,260.5 H347 Q353,260.5 353,266.5 V980.8 Q353,986.8 347,986.8 H251.5" fill="none" stroke-width="2.4" stroke-linecap="round" style="stroke:#b25e09"/><circle cx="246" cy="260.5" r="2.2" style="fill:#b25e09"/><path d="M246.5,986.8 l6.5,-3.6 v7.2 z" style="fill:#b25e09"/><circle cx="353" cy="623.6" r="7.2" stroke-width="1.3" style="fill:#f1f4f3;stroke:#b25e09"/><text x="353" y="626.9" font-size="9.5" font-weight="700" text-anchor="middle" style="fill:#1a201e">9</text></g><g data-handoff="h-codex-back"><path d="M246,999.8 H360 Q366,999.8 366,993.8 V279.5 Q366,273.5 360,273.5 H251.5" fill="none" stroke-width="1.6" stroke-linecap="round" style="stroke:#1f5f4a"/><circle cx="246" cy="999.8" r="2.2" style="fill:#1f5f4a"/><path d="M246.5,273.5 l6.5,-3.6 v7.2 z" style="fill:#1f5f4a"/><circle cx="366" cy="644.6" r="7.2" stroke-width="1.3" style="fill:#f1f4f3;stroke:#1f5f4a"/><text x="366" y="647.9" font-size="8.5" font-weight="700" text-anchor="middle" style="fill:#1a201e">10</text></g><text x="12" y="1079.5" font-size="12.5" font-weight="700" style="fill:#1a201e">Handoffs</text><g data-handoff-row="h-start-workers"><rect data-row="" x="8" y="1086.5" width="384" height="47.5" rx="8" style="fill:transparent"/><circle cx="20" cy="1096.5" r="7.2" stroke-width="1.3" style="fill:#f1f4f3;stroke:#454c49"/><text x="20" y="1099.8" font-size="9.5" font-weight="700" text-anchor="middle" style="fill:#1a201e">1</text><text x="36" y="1100.5" font-size="12" font-weight="700" style="fill:#1a201e">Operator → Worker lanes</text><path d="M36,1111 h18" fill="none" stroke-width="1.4" stroke-linecap="round" stroke-dasharray="5 3" style="stroke:#454c49"/><text x="60" y="1114.5" font-size="11" font-weight="700" style="fill:#454c49">session message</text><text x="36" y="1128" font-size="11" style="fill:#454c49">a task prompt for each lane, and steering while it runs</text></g><g data-handoff-row="h-workers-back"><rect data-row="" x="8" y="1137" width="384" height="47.5" rx="8" style="fill:transparent"/><circle cx="20" cy="1147" r="7.2" stroke-width="1.3" style="fill:#f1f4f3;stroke:#2b5f9e"/><text x="20" y="1150.3" font-size="9.5" font-weight="700" text-anchor="middle" style="fill:#1a201e">2</text><text x="36" y="1151" font-size="12" font-weight="700" style="fill:#1a201e">Worker lanes → Operator</text><path d="M36,1161.5 h18" fill="none" stroke-width="1.6" stroke-linecap="round" style="stroke:#2b5f9e"/><text x="60" y="1165" font-size="11" font-weight="700" style="fill:#2b5f9e">pull request on the Splashery repository</text><text x="36" y="1178.5" font-size="11" style="fill:#454c49">finished work, one pull request per lane</text></g><g data-handoff-row="h-start-tests"><rect data-row="" x="8" y="1187.5" width="384" height="47.5" rx="8" style="fill:transparent"/><circle cx="20" cy="1197.5" r="7.2" stroke-width="1.3" style="fill:#f1f4f3;stroke:#454c49"/><text x="20" y="1200.8" font-size="9.5" font-weight="700" text-anchor="middle" style="fill:#1a201e">3</text><text x="36" y="1201.5" font-size="12" font-weight="700" style="fill:#1a201e">Operator → Test runners</text><path d="M36,1212 h18" fill="none" stroke-width="1.4" stroke-linecap="round" stroke-dasharray="5 3" style="stroke:#454c49"/><text x="60" y="1215.5" font-size="11" font-weight="700" style="fill:#454c49">session message</text><text x="36" y="1229" font-size="11" style="fill:#454c49">which branch to test</text></g><g data-handoff-row="h-tests-back"><rect data-row="" x="8" y="1238" width="384" height="47.5" rx="8" style="fill:transparent"/><circle cx="20" cy="1248" r="7.2" stroke-width="1.3" style="fill:#f1f4f3;stroke:#1f5f4a"/><text x="20" y="1251.3" font-size="9.5" font-weight="700" text-anchor="middle" style="fill:#1a201e">4</text><text x="36" y="1252" font-size="12" font-weight="700" style="fill:#1a201e">Test runners → Operator</text><path d="M36,1262.5 h18" fill="none" stroke-width="1.6" stroke-linecap="round" style="stroke:#1f5f4a"/><text x="60" y="1266" font-size="11" font-weight="700" style="fill:#1f5f4a">branch on the Splashery repository</text><text x="36" y="1279.5" font-size="11" style="fill:#454c49">test results, committed beside the work</text></g><g data-handoff-row="h-routines"><rect data-row="" x="8" y="1288.5" width="384" height="47.5" rx="8" style="fill:transparent"/><circle cx="20" cy="1298.5" r="7.2" stroke-width="1.3" style="fill:#f1f4f3;stroke:#6b4fa0"/><text x="20" y="1301.8" font-size="9.5" font-weight="700" text-anchor="middle" style="fill:#1a201e">5</text><text x="36" y="1302.5" font-size="12" font-weight="700" style="fill:#1a201e">Scheduled routines → Operator</text><path d="M36,1313 h18" fill="none" stroke-width="1.8" stroke-linecap="round" stroke-dasharray="1.5 3" style="stroke:#6b4fa0"/><text x="60" y="1316.5" font-size="11" font-weight="700" style="fill:#6b4fa0">scheduled message</text><text x="36" y="1330" font-size="11" style="fill:#454c49">a wake-up with what changed since the last one</text></g><g data-handoff-row="h-research"><rect data-row="" x="8" y="1339" width="384" height="47.5" rx="8" style="fill:transparent"/><circle cx="20" cy="1349" r="7.2" stroke-width="1.3" style="fill:#f1f4f3;stroke:#1f5f4a"/><text x="20" y="1352.3" font-size="9.5" font-weight="700" text-anchor="middle" style="fill:#1a201e">6</text><text x="36" y="1353" font-size="12" font-weight="700" style="fill:#1a201e">Research lanes → itself</text><path d="M36,1363.5 h18" fill="none" stroke-width="1.6" stroke-linecap="round" style="stroke:#1f5f4a"/><text x="60" y="1367" font-size="11" font-weight="700" style="fill:#1f5f4a">branch on a private research repository</text><text x="36" y="1380.5" font-size="11" style="fill:#454c49">work passed from one research lane to the next</text></g><g data-handoff-row="h-brief-grooph"><rect data-row="" x="8" y="1389.5" width="384" height="47.5" rx="8" style="fill:transparent"/><circle cx="20" cy="1399.5" r="7.2" stroke-width="1.3" style="fill:#f1f4f3;stroke:#b25e09"/><text x="20" y="1402.8" font-size="9.5" font-weight="700" text-anchor="middle" style="fill:#1a201e">7</text><text x="36" y="1403.5" font-size="12" font-weight="700" style="fill:#1a201e">Operator → grooph session</text><path d="M36,1414 h18" fill="none" stroke-width="2.4" stroke-linecap="round" style="stroke:#b25e09"/><text x="60" y="1417.5" font-size="11" font-weight="700" style="fill:#b25e09">carried by Ryan</text><text x="36" y="1431" font-size="11" style="fill:#454c49">the brief for this round, pasted into a fresh session</text></g><g data-handoff-row="h-grooph-back"><rect data-row="" x="8" y="1440" width="384" height="61" rx="8" style="fill:transparent"/><circle cx="20" cy="1450" r="7.2" stroke-width="1.3" style="fill:#f1f4f3;stroke:#1f5f4a"/><text x="20" y="1453.3" font-size="9.5" font-weight="700" text-anchor="middle" style="fill:#1a201e">8</text><text x="36" y="1454" font-size="12" font-weight="700" style="fill:#1a201e">grooph session → Operator</text><path d="M36,1464.5 h18" fill="none" stroke-width="1.6" stroke-linecap="round" style="stroke:#1f5f4a"/><text x="60" y="1468" font-size="11" font-weight="700" style="fill:#1f5f4a">branch main on ryanjosephkamp/grooph</text><text x="36" y="1481.5" font-size="11" style="fill:#454c49">docs/HANDBACK-operator.md: the map format and how to</text><text x="36" y="1495" font-size="11" style="fill:#454c49">run the live view</text></g><g data-handoff-row="h-brief-codex"><rect data-row="" x="8" y="1504" width="384" height="47.5" rx="8" style="fill:transparent"/><circle cx="20" cy="1514" r="7.2" stroke-width="1.3" style="fill:#f1f4f3;stroke:#b25e09"/><text x="20" y="1517.3" font-size="9.5" font-weight="700" text-anchor="middle" style="fill:#1a201e">9</text><text x="36" y="1518" font-size="12" font-weight="700" style="fill:#1a201e">Operator → Codex</text><path d="M36,1528.5 h18" fill="none" stroke-width="2.4" stroke-linecap="round" style="stroke:#b25e09"/><text x="60" y="1532" font-size="11" font-weight="700" style="fill:#b25e09">carried by Ryan</text><text x="36" y="1545.5" font-size="11" style="fill:#454c49">prompts carried to Codex by hand</text></g><g data-handoff-row="h-codex-back"><rect data-row="" x="8" y="1554.5" width="384" height="47.5" rx="8" style="fill:transparent"/><circle cx="20" cy="1564.5" r="7.2" stroke-width="1.3" style="fill:#f1f4f3;stroke:#1f5f4a"/><text x="20" y="1567.8" font-size="8.5" font-weight="700" text-anchor="middle" style="fill:#1a201e">10</text><text x="36" y="1568.5" font-size="12" font-weight="700" style="fill:#1a201e">Codex → Operator</text><path d="M36,1579 h18" fill="none" stroke-width="1.6" stroke-linecap="round" style="stroke:#1f5f4a"/><text x="60" y="1582.5" font-size="11" font-weight="700" style="fill:#1f5f4a">branch on the Splashery repository</text><text x="36" y="1596" font-size="11" style="fill:#454c49">Codex's work, on a branch the Operator can fetch</text></g></svg>
