<svg xmlns="http://www.w3.org/2000/svg" width="640" height="360" viewBox="0 0 640 360" font-family="Inter, Helvetica, Arial, sans-serif">
<rect x="0.5" y="0.5" width="639" height="359" rx="12" fill="#ffffff" stroke="#e5e7eb"/>
<g id="header">
<text x="24" y="40" font-size="20" font-weight="600" fill="#1f2933">Northwind Stores</text>
<text x="24" y="60" font-size="12" fill="#6b7280">12 months to August 2026</text>
<rect x="24" y="84" width="192" height="96" rx="8" fill="#f3f4f6"/>
<text x="40" y="108" font-size="11" font-weight="600" fill="#6b7280" letter-spacing="0.6">REVENUE</text>
<text x="40" y="146" font-size="28" font-weight="700" fill="#1f2933">$1.42M</text>
<text x="40" y="166" font-size="12" font-weight="600" fill="#1a7f37">▲ 12.4% vs prior period</text>
<rect x="224" y="84" width="192" height="96" rx="8" fill="#f3f4f6"/>
<text x="240" y="108" font-size="11" font-weight="600" fill="#6b7280" letter-spacing="0.6">ORDERS</text>
<text x="240" y="146" font-size="28" font-weight="700" fill="#1f2933">38.2k</text>
<text x="240" y="166" font-size="12" font-weight="600" fill="#c62828">▼ 3.1% vs prior period</text>
<rect x="424" y="84" width="192" height="96" rx="8" fill="#f3f4f6"/>
<text x="440" y="108" font-size="11" font-weight="600" fill="#6b7280" letter-spacing="0.6">AVG ORDER</text>
<text x="440" y="146" font-size="28" font-weight="700" fill="#1f2933">$37.24</text>
<text x="440" y="166" font-size="12" font-weight="600" fill="#1a7f37">▲ 15.8% vs prior period</text>
</g>
<g id="trend">
<text x="24" y="216" font-size="11" font-weight="600" fill="#6b7280" letter-spacing="0.6">REVENUE BY MONTH</text>
<line x1="24" y1="320" x2="616" y2="320" stroke="#e5e7eb" stroke-width="1"/>
<rect x="24" y="264.68" width="36.5" height="55.32" rx="3" fill="#2f6fed"/>
<text x="42.25" y="336" font-size="10" text-anchor="middle" fill="#6b7280">Sep</text>
<rect x="74.5" y="261.48" width="36.5" height="58.52" rx="3" fill="#2f6fed"/>
<text x="92.75" y="336" font-size="10" text-anchor="middle" fill="#6b7280">Oct</text>
<rect x="125" y="246.02" width="36.5" height="73.98" rx="3" fill="#2f6fed"/>
<text x="143.25" y="336" font-size="10" text-anchor="middle" fill="#6b7280">Nov</text>
<rect x="175.5" y="240" width="36.5" height="80" rx="3" fill="#1b4fc1"/>
<text x="193.75" y="336" font-size="10" text-anchor="middle" fill="#6b7280">Dec</text>
<text x="193.75" y="234" font-size="12" font-weight="600" text-anchor="middle" fill="#1f2933">$142.3k</text>
<rect x="226" y="265.92" width="36.5" height="54.08" rx="3" fill="#2f6fed"/>
<text x="244.25" y="336" font-size="10" text-anchor="middle" fill="#6b7280">Jan</text>
<rect x="276.5" y="262.77" width="36.5" height="57.23" rx="3" fill="#2f6fed"/>
<text x="294.75" y="336" font-size="10" text-anchor="middle" fill="#6b7280">Feb</text>
<rect x="327" y="253.16" width="36.5" height="66.84" rx="3" fill="#2f6fed"/>
<text x="345.25" y="336" font-size="10" text-anchor="middle" fill="#6b7280">Mar</text>
<rect x="377.5" y="251.19" width="36.5" height="68.81" rx="3" fill="#2f6fed"/>
<text x="395.75" y="336" font-size="10" text-anchor="middle" fill="#6b7280">Apr</text>
<rect x="428" y="248.55" width="36.5" height="71.45" rx="3" fill="#2f6fed"/>
<text x="446.25" y="336" font-size="10" text-anchor="middle" fill="#6b7280">May</text>
<rect x="478.5" y="246.47" width="36.5" height="73.53" rx="3" fill="#2f6fed"/>
<text x="496.75" y="336" font-size="10" text-anchor="middle" fill="#6b7280">Jun</text>
<rect x="529" y="249.95" width="36.5" height="70.05" rx="3" fill="#2f6fed"/>
<text x="547.25" y="336" font-size="10" text-anchor="middle" fill="#6b7280">Jul</text>
<rect x="579.5" y="249.84" width="36.5" height="70.16" rx="3" fill="#2f6fed"/>
<text x="597.75" y="336" font-size="10" text-anchor="middle" fill="#6b7280">Aug</text>
</g>
</svg>
